<?xml version="1.0" encoding="UTF-8"?>
<svg id="Layer_1" data-name="Layer 1" xmlns="http://www.w3.org/2000/svg" xmlns:xlink="http://www.w3.org/1999/xlink" viewBox="0 0 159.06 184.89">
  <defs>
    <style>
      .cls-1 {
        fill: url(#linear-gradient);
      }

      .cls-1, .cls-2 {
        stroke-width: 0px;
      }

      .cls-2 {
        fill: url(#linear-gradient-2);
      }
    </style>
    <linearGradient id="linear-gradient" x1="90.59" y1="85.04" x2="90.59" y2="170.52" gradientUnits="userSpaceOnUse">
      <stop offset="0" stop-color="#16528b"/>
      <stop offset="1" stop-color="#009fe3"/>
    </linearGradient>
    <linearGradient id="linear-gradient-2" x1="0" y1="67.74" x2="159.06" y2="67.74" xlink:href="#linear-gradient"/>
  </defs>
  <path class="cls-1" d="M152.48,74.52c-1.42-.6-2.87-1.15-4.35-1.63-2.74-.9-5.56-1.6-8.46-2.07-3-.49-6.08-.75-9.22-.75-3.84,0-7.58.38-11.21,1.11-4.14.83-8.12,2.11-11.88,3.79-14.37,6.42-25.59,18.64-30.65,33.69-.64,1.89-1.18,3.82-1.62,5.8-.88,3.96-1.34,8.08-1.34,12.31,0,.29,0,.59.01.88,0,.2,0,.39,0,.58v.1c0,.62-.02,1.24-.02,1.86v.12c0,1.45.04,2.9.11,4.34.17,3.57.54,7.08,1.11,10.52.41,2.53.92,5.02,1.54,7.48.15.62.31,1.24.48,1.85.16.59.33,1.18.5,1.76.45,1.55.95,3.09,1.49,4.6.75,2.12,1.57,4.2,2.47,6.24.83,1.93,1.74,3.81,2.72,5.66.16.32.33.64.5.96,2.03,3.8,4.33,7.44,6.87,10.89-25.2-10.48-46.89-27.7-62.84-49.4.04-.19.08-.38.12-.56,1.03-5.14,2.5-10.12,4.37-14.91.29-.75.59-1.49.9-2.22.01-.02.01-.04.02-.05.25-.6.5-1.18.77-1.77.02-.06.05-.12.08-.18.05-.12.11-.25.16-.37.23-.51.47-1.03.72-1.54.34-.72.69-1.44,1.05-2.14.18-.36.37-.72.55-1.07.17-.32.34-.64.52-.96.18-.35.37-.69.56-1.03.31-.56.63-1.12.95-1.67.33-.57.67-1.14,1.02-1.7.19-.32.39-.62.58-.93.05-.07.09-.15.14-.22.34-.54.68-1.07,1.03-1.59.35-.54.72-1.07,1.09-1.6.34-.5.69-.99,1.04-1.48.27-.38.54-.75.82-1.11.1-.14.21-.29.32-.42.29-.39.58-.77.88-1.15.36-.47.73-.93,1.1-1.39,2.06-2.53,4.24-4.94,6.54-7.23.5-.5,1-.99,1.51-1.47,9.18-8.75,20.17-15.63,32.35-19.99,1.19-.44,2.39-.84,3.6-1.22.34-.11.68-.21,1.02-.31.34-.1.69-.2,1.03-.3.01,0,.01-.01.02-.01.03-.01.06-.02.09-.02.23-.06.45-.13.68-.19.13-.04.26-.07.39-.11.4-.11.81-.22,1.22-.33.64-.16,1.27-.32,1.91-.46.32-.08.64-.16.97-.23.59-.13,1.19-.26,1.79-.37.31-.08.63-.14.95-.19.66-.14,1.32-.26,1.99-.37.21-.04.41-.07.62-.1,1.07-.18,2.14-.34,3.22-.48h.01c.14-.02.28-.04.42-.05.64-.08,1.29-.15,1.94-.21.08-.01.15-.02.22-.03.83-.08,1.65-.15,2.48-.2.72-.06,1.44-.1,2.16-.13.27-.02.54-.03.81-.03.22-.02.45-.02.68-.03.22-.01.44-.01.67-.01.22-.02.45-.03.67-.03h.02c1.51.05,3.01.15,4.5.32.37.04.75.09,1.12.14.41.05.83.11,1.25.17.32.05.64.1.96.16.37.06.74.13,1.1.2.36.07.71.14,1.07.21,1.83.39,3.64.86,5.41,1.42.71.23,1.41.46,2.11.71,1.07.39,2.13.81,3.17,1.26.35.15.7.31,1.04.46.69.32,1.38.65,2.05.99.34.17.68.34,1.02.52.33.17.66.35.99.53h0s.01.02.02.02c.83.46,1.65.94,2.45,1.44.38.24.75.48,1.12.72.39.26.78.52,1.16.78.99.68,1.96,1.4,2.9,2.14.22.17.43.34.64.52.31.25.62.5.92.76Z"/>
  <path class="cls-2" d="M157.93,69.42c-1.01-4.69-2.61-9.16-4.7-13.34-5.65-11.27-14.94-20.39-26.33-25.82-.25-.08-.5-.15-.75-.22l-.83-3.37c-1.06-3.16-2.08-7.31-10.89-12.14-.03-.02-.06-.03-.09-.05-4.03-2.21-9.7-4.56-17.72-7.02-.2-.06-.41-.13-.62-.19-1.94-.59-4.02-1.18-6.24-1.78h-.01c-6.59-1.8-13.38-3.15-20.3-4.03-.93-.12-1.86-.23-2.79-.32-.21-.03-.43-.05-.64-.07-.18-.02-.35-.04-.53-.05-1-.11-2.01-.2-3.02-.28-.77-.06-1.54-.11-2.32-.16-1.46-.09-2.94-.17-4.42-.22-.07,0-.15-.01-.23,0-.79-.03-1.59-.05-2.38-.06-.77-.01-1.54-.02-2.31-.02-.71,0-1.42.01-2.13.01-.57.01-1.14.02-1.71.04-1.28.02-2.55.07-3.82.14-.63.04-1.26.07-1.9.11-.63.04-1.26.09-1.89.13-.74.06-1.47.12-2.21.18-.73.07-1.46.14-2.2.22-.66.07-1.31.14-1.97.23-7.92.9-15.66,2.46-23.15,4.59-1.52.43-3.04.89-4.54,1.38-.03.01-.05.01-.08.02C2.59,16.79.88,26.62.18,36.73c-.07.96-.13,1.93-.18,2.89,11.51-6.39,24.53-10.38,38.4-11.3,2.05-.14,4.12-.21,6.21-.21,5.07,0,10.05.41,14.9,1.21.02-.01.03-.01.05,0,.19.03.37.06.56.1h.03c.06-.01.12-.01.18,0-.05,0-.1,0-.15.01h-.01c-.25,0-.5.01-.75.02h-.04c-.15.01-.29.01-.44.02-.01,0-.02.01-.02.01C36.27,30.38,15.65,39.51.04,54.01H.04c.06,1.43.14,2.85.25,4.26.01.14.02.27.04.41,1.4,18.35,6.13,35.79,13.59,51.68.02.05.05.1.07.15,2-15.74,10.48-29.45,22.67-38.41-9.3,10.1-14.97,23.59-14.97,38.39,0,6.96,1.25,13.65,3.57,19.81,0,.01,0,.03.01.04.05.07.1.14.15.21.06.09.12.18.18.26.07.11.14.22.22.32.07.11.14.22.21.32.09.14.18.27.28.4.06.09.11.17.17.25.63.91,1.28,1.81,1.93,2.7.1.14.19.28.29.41.04-.19.08-.38.12-.56,1.03-5.14,2.5-10.12,4.37-14.91.29-.75.59-1.49.9-2.22.01-.02.01-.04.02-.05.24-.6.5-1.18.77-1.77.02-.06.05-.12.08-.18.05-.12.11-.25.16-.37.23-.51.47-1.03.72-1.54.34-.72.69-1.44,1.05-2.14.18-.36.37-.72.55-1.07.17-.32.34-.64.52-.96.18-.35.37-.69.56-1.03.31-.56.63-1.12.95-1.67.33-.57.67-1.14,1.02-1.7.19-.32.39-.62.58-.93.05-.07.09-.15.14-.22.34-.54.68-1.07,1.03-1.59.35-.54.72-1.07,1.09-1.6.34-.5.69-.99,1.04-1.48.27-.38.54-.75.82-1.11.1-.14.21-.29.32-.42.29-.39.58-.77.88-1.15.36-.47.73-.93,1.1-1.39,2.06-2.53,4.24-4.94,6.54-7.23.5-.5,1-.99,1.51-1.47,9.18-8.75,20.17-15.63,32.35-19.99,1.19-.44,2.39-.84,3.6-1.22.34-.11.68-.21,1.02-.31.34-.1.69-.2,1.03-.3.01,0,.01-.01.02-.01.03-.01.06-.02.09-.02.23-.06.45-.13.68-.19.13-.04.26-.07.39-.11.4-.11.81-.22,1.22-.33.64-.16,1.27-.32,1.91-.46.32-.08.64-.16.97-.23.59-.13,1.19-.26,1.79-.37.31-.08.63-.14.95-.19.66-.14,1.32-.26,1.99-.37.21-.04.41-.07.62-.1,3.69-.78,7.38-1.17,11.04-1.21.75-.02,1.5-.01,2.24.01h.02c1.51.05,3.01.15,4.5.32.38.04.75.08,1.12.14.41.05.83.11,1.25.17.32.05.64.1.96.16.37.06.74.13,1.1.2.36.06.72.14,1.07.21.37.08.74.16,1.1.25.37.08.73.17,1.1.27.33.08.67.16.99.26.06.01.11.02.17.04.05.01.09.03.14.04.64.18,1.28.36,1.91.56.71.22,1.41.46,2.11.71,1.07.39,2.13.81,3.17,1.26.35.15.7.31,1.04.46.69.32,1.38.65,2.05.99.34.17.68.34,1.02.52.33.17.66.35.99.53h.01s.01.02.02.02c.83.46,1.65.94,2.45,1.44.38.24.75.48,1.12.72.39.26.78.52,1.16.78.99.68,1.96,1.4,2.9,2.14.22.17.43.34.64.52.31.25.62.5.92.76.54.22,1.07.45,1.59.69l4.99,2.08c-.2-2.68-.58-5.31-1.13-7.87ZM109.6,39.21c-.49.75-1.13,1.4-1.87,1.91-.68.47-1.44.82-2.26,1.02-.17.05-.35.09-.53.12-.4.07-.82.11-1.24.11-2.5,0-4.69-1.29-5.95-3.25-.28-.43-.51-.88-.68-1.37-.23-.6-.38-1.23-.42-1.9-.02-.19-.03-.37-.03-.56,0-.12,0-.24.02-.36.18-3.75,3.27-6.73,7.06-6.73s7.09,3.17,7.09,7.09c0,1.45-.44,2.8-1.19,3.92Z"/>
</svg>