<svg width="52" height="52" viewBox="0 0 52 52" fill="none" xmlns="http://www.w3.org/2000/svg">
<g id="Frame" clip-path="url(#clip0_477_419)">
<g id="Layer 2">
<g id="15.bird">
<path id="background" d="M26 52C40.3594 52 52 40.3594 52 26C52 11.6406 40.3594 0 26 0C11.6406 0 0 11.6406 0 26C0 40.3594 11.6406 52 26 52Z" fill="#29B82A"/>
<path id="icon" d="M39.0001 16.6366C38.7439 16.6156 38.4865 16.6156 38.2303 16.6366C38.5519 16.2945 38.8153 16.055 39.0582 15.7847C39.119 15.7344 39.1629 15.6666 39.1841 15.5906C39.2052 15.5145 39.2026 15.4338 39.1765 15.3593C39.1504 15.2848 39.1021 15.2201 39.0382 15.1738C38.9742 15.1276 38.8977 15.102 38.8187 15.1005C38.6917 15.0882 38.5635 15.0963 38.439 15.1245C37.7035 15.2579 36.968 15.3845 36.2358 15.5384C36.111 15.5739 35.9783 15.5699 35.8558 15.5271C35.7333 15.4842 35.6271 15.4045 35.5516 15.299C34.9223 14.5248 34.0534 13.982 33.0816 13.7561C32.0478 13.4963 30.9633 13.5179 29.9406 13.8187C28.918 14.1195 27.9944 14.6885 27.2659 15.4666C26.5224 16.2734 25.843 17.137 25.2337 18.0495C24.4982 19.0758 23.8653 20.15 23.0956 21.1558C21.8119 22.956 19.9155 24.2259 17.7622 24.7274C16.3268 25.0288 14.8553 25.1209 13.3935 25.0011C13.0593 24.971 12.7257 25.0647 12.4561 25.2645C12.1448 25.5518 12.4287 25.9145 12.5998 26.2155C14.0822 28.8883 16.4424 30.967 19.2811 32.0997C20.6085 32.6403 22.018 32.9447 23.5198 33.3861V37.18C23.5198 38.0455 23.8619 38.4047 24.7343 38.4082H29.1816C29.9616 38.4082 30.4201 38.1071 30.4782 37.5666C30.5364 37.0261 30.1053 36.6053 29.3322 36.5163C28.8126 36.4852 28.2917 36.4852 27.7722 36.5163C27.8474 35.4661 27.9432 34.4637 27.9809 33.475C27.9809 33.0953 28.1245 32.9618 28.4837 32.8934C30.0121 32.6233 31.4524 31.9871 32.6814 31.0392C36.3966 28.0903 37.7651 24.1732 37.3203 19.5411C37.2898 19.4066 37.3005 19.2661 37.3512 19.1379C37.4019 19.0097 37.4901 18.8998 37.6043 18.8226C38.1859 18.4053 38.7537 17.9674 39.3148 17.4987C40.3137 16.6605 39.0001 16.6366 39.0001 16.6366ZM26.1916 36.4103L25.0901 36.5129C25.1687 35.4319 25.244 34.3782 25.3227 33.2937H26.1916V36.4103ZM27.8645 26.5337C27.0435 28.2921 25.5998 28.9763 23.7148 28.5555C23.4613 28.5158 23.2017 28.5565 22.9724 28.6718C22.2437 29.014 21.433 29.3561 20.7693 28.8019C20.2549 28.3532 19.5865 28.1214 18.9048 28.1553C18.5969 28.1553 18.2411 27.8132 17.9948 27.5634C17.7485 27.3137 17.8819 27.0879 18.248 27.0434C22.5927 26.5234 25.5382 24.0774 27.5327 20.3142C27.6379 20.1672 27.7634 20.0359 27.9056 19.9242C28.0014 20.0679 28.1622 20.2013 28.1895 20.3587C28.3503 21.2653 28.4803 22.1753 28.559 22.6747C28.5316 24.2895 28.3948 25.4458 27.8748 26.5337H27.8645ZM31.679 19.3187C31.5031 19.3175 31.3292 19.2808 31.1679 19.2106C31.0066 19.1405 30.8611 19.0384 30.7403 18.9105C30.6195 18.7827 30.5258 18.6317 30.4649 18.4667C30.404 18.3016 30.3771 18.126 30.3859 17.9503C30.3948 17.6051 30.5382 17.2771 30.7855 17.0361C31.0328 16.7952 31.3645 16.6604 31.7098 16.6605C32.0637 16.6659 32.4013 16.8103 32.6497 17.0625C32.898 17.3147 33.0372 17.6545 33.0372 18.0084C33.035 18.1839 32.998 18.3572 32.9283 18.5183C32.8587 18.6794 32.7578 18.8251 32.6315 18.947C32.5052 19.0688 32.356 19.1644 32.1925 19.2282C32.029 19.292 31.8545 19.3228 31.679 19.3187Z" fill="white"/>
</g>
</g>
</g>
<defs>
<clipPath id="clip0_477_419">
<rect width="52" height="52" fill="white"/>
</clipPath>
</defs>
</svg>
