<svg width="52" height="52" viewBox="0 0 52 52" fill="none" xmlns="http://www.w3.org/2000/svg">
<g id="Layer_1" clip-path="url(#clip0_466_192)">
<g id="Group">
<path id="Vector" d="M26 56C42.5685 56 56 42.5685 56 26C56 9.43146 42.5685 -4 26 -4C9.43146 -4 -4 9.43146 -4 26C-4 42.5685 9.43146 56 26 56Z" fill="#E5AA17"/>
<path id="Vector_2" fill-rule="evenodd" clip-rule="evenodd" d="M42.5393 35.0157H35.3397V27.8161C39.0316 28.4008 41.9554 31.3239 42.5393 35.0157ZM33.9793 45.043C32.8872 45.043 31.8415 44.8388 30.8782 44.4682L34.765 37.7361H42.5393C41.8848 41.8713 38.2956 45.043 33.9793 45.043ZM25.3124 36.3758C25.3124 39.0895 26.5662 41.5152 28.5242 43.1046L32.6192 36.0112V27.8161C28.4841 28.4707 25.3124 32.0599 25.3124 36.3758ZM21.7878 37.7089C19.0681 37.7089 16.4941 37.2753 14.5388 36.4889C12.7492 35.7682 11.9611 34.946 11.8047 34.3832V30.1571C12.3113 30.4631 12.8845 30.7463 13.5229 31.003C15.7926 31.917 18.728 32.4203 21.7878 32.4203C22.302 32.4203 22.8121 32.4059 23.3171 32.3786C22.8487 33.6232 22.5919 34.9699 22.5919 36.3757C22.5919 36.8212 22.6192 37.2601 22.6686 37.692C22.3762 37.7022 22.0818 37.7089 21.7878 37.7089ZM14.2921 8.23566C16.2754 7.41102 18.9414 6.95703 21.7994 6.95703C24.6578 6.95703 27.3238 7.41102 29.3063 8.23566C31.1424 9.00008 31.7945 9.83551 31.7945 10.3196C31.7945 10.8041 31.1424 11.6395 29.3063 12.4032C27.3238 13.2286 24.6578 13.6827 21.7994 13.6827C18.9413 13.6827 16.2754 13.2286 14.2921 12.4032C12.456 11.6396 11.8047 10.8042 11.8047 10.3196C11.8047 9.83551 12.456 9.00008 14.2921 8.23566ZM31.7945 18.2529C31.7147 18.8103 30.9876 19.659 29.1643 20.4191C27.1946 21.2393 24.5752 21.6909 21.7878 21.6909C19.0681 21.6909 16.4931 21.2581 14.5388 20.4709C12.7476 19.7502 11.9603 18.9271 11.8047 18.3639V14.1976C12.2375 14.455 12.7188 14.6949 13.2481 14.9151C15.5547 15.8741 18.5913 16.4032 21.7994 16.4032C25.008 16.4032 28.0445 15.8742 30.351 14.9151C30.8796 14.6949 31.3609 14.4552 31.7945 14.1976V18.2529ZM24.9078 29.501C23.901 29.6329 22.8546 29.7 21.7878 29.7C19.0681 29.7 16.4931 29.2664 14.5388 28.4799C12.7476 27.7592 11.9603 26.9354 11.8047 26.3735V22.1482C12.3113 22.4541 12.8845 22.7374 13.5229 22.9948C15.7926 23.9089 18.728 24.4114 21.7878 24.4114C24.9265 24.4114 27.917 23.8861 30.2099 22.9303C30.7939 22.6872 31.3229 22.4185 31.7945 22.1286V25.2004C29.0003 25.7449 26.5686 27.3152 24.9078 29.501Z" fill="white"/>
</g>
</g>
<defs>
<clipPath id="clip0_466_192">
<rect width="60" height="60" fill="white" transform="translate(-4 -4)"/>
</clipPath>
</defs>
</svg>
