<svg width="52" height="52" viewBox="0 0 52 52" fill="none" xmlns="http://www.w3.org/2000/svg">
<g id="bold">
<g clip-path="url(#clip0_466_158)">
<path id="Vector" d="M42.25 52H9.75C4.36475 52 0 47.6353 0 42.25V9.75C0 4.36475 4.36475 0 9.75 0H42.25C47.6353 0 52 4.36475 52 9.75V42.25C52 47.6353 47.6353 52 42.25 52Z" fill="#FFE6E2"/>
<path id="Vector_2" d="M26 19.5C33.1797 19.5 39 18.0449 39 16.25C39 14.4551 33.1797 13 26 13C18.8203 13 13 14.4551 13 16.25C13 18.0449 18.8203 19.5 26 19.5Z" fill="#FD907E"/>
<g id="Group">
<path id="Vector_3" d="M26 21.6661C18.8191 21.6661 13 20.2118 13 18.4161V22.75C13 24.5456 18.8207 26 26 26C33.1793 26 39 24.5456 39 22.75V18.4161C39 20.2118 33.1809 21.6661 26 21.6661Z" fill="#FC573B"/>
<path id="Vector_4" d="M26 28.1661C18.8191 28.1661 13 26.7118 13 24.9161V29.25C13 31.0456 18.8207 32.5 26 32.5C33.1793 32.5 39 31.0456 39 29.25V24.9161C39 26.7118 33.1809 28.1661 26 28.1661Z" fill="#FC573B"/>
<path id="Vector_5" d="M26 34.6661C18.8191 34.6661 13 33.2118 13 31.4161V35.75C13 37.5456 18.8207 39 26 39C33.1793 39 39 37.5456 39 35.75V31.4161C39 33.2118 33.1809 34.6661 26 34.6661Z" fill="#FC573B"/>
</g>
</g>
</g>
<defs>
<clipPath id="clip0_466_158">
<rect width="52" height="52" rx="26" fill="white"/>
</clipPath>
</defs>
</svg>
