<svg width="52" height="52" viewBox="0 0 52 52" fill="none" xmlns="http://www.w3.org/2000/svg">
<g id="svg4763" clip-path="url(#clip0_477_457)">
<g id="layer1">
<g id="g4159">
<path id="path4142" d="M52 26.0006C52 40.3469 40.3464 52.0005 26 52.0005C11.6536 52.0005 0 40.3469 0 26.0006C0 11.654 11.6536 0.000457764 26 0.000457764C40.3464 0.000457764 52 11.654 52 26.0006Z" fill="#E170DC"/>
<g id="Group">
<path id="path4144" fill-rule="evenodd" clip-rule="evenodd" d="M30.4571 12.2112C30.5963 12.2572 30.6892 12.2572 30.8749 12.2572C30.7356 12.4893 30.7356 12.5358 30.5963 12.8607C30.2249 13.5108 29.7606 14.2535 29.3892 14.4858C29.0642 14.7179 28.1821 14.9037 27.3928 14.95C26.975 14.996 26.8357 14.996 26.6035 14.996C26.6035 14.7639 26.65 14.6712 26.7428 14.3461C26.9285 13.6962 27.2535 12.9997 27.4857 12.7674C27.9035 12.4891 28.925 12.2568 29.8535 12.2568C30.1321 12.2107 30.2713 12.2112 30.4571 12.2112Z" fill="white"/>
<path id="path4146" fill-rule="evenodd" clip-rule="evenodd" d="M25.9999 17.7826C26.7428 17.8287 27.1607 18.0147 27.4857 18.2933C27.8107 18.6183 28.0428 19.0825 28.2285 19.6397C28.5999 20.8004 28.6928 22.3326 29.25 23.679C29.9463 25.5362 31.1535 27.1146 32.0821 28.7398C33.0106 30.3647 33.7071 31.9897 33.5678 33.9862C33.3356 35.9827 32.4999 37.4684 31.1999 38.3969C29.8535 39.3719 28.0892 39.8362 25.9999 39.7897C24.1892 39.7439 22.4713 39.2791 21.1713 38.3041C19.8249 37.3753 18.8499 35.9827 18.4321 33.9862C18.2928 32.4075 18.9892 30.7361 19.9178 29.0184C20.8464 27.3004 22.0535 25.5362 22.7499 23.679C23.1213 22.5182 23.2606 21.0325 23.6321 19.8254C23.8642 19.2683 24.0963 18.7576 24.4678 18.3861C24.8392 18.0612 25.3035 17.8289 25.9999 17.7826Z" fill="white"/>
<path id="path4148" fill-rule="evenodd" clip-rule="evenodd" d="M25.2108 12.2577L24.3286 12.5363C24.3286 12.5363 25.35 16.0182 25.5358 17.3648L26.4643 17.2727C26.2322 15.694 25.2108 12.2583 25.2108 12.2583V12.2577Z" fill="white"/>
</g>
</g>
</g>
</g>
<defs>
<clipPath id="clip0_477_457">
<rect width="52" height="52" fill="white"/>
</clipPath>
</defs>
</svg>
