<svg width="52" height="52" viewBox="0 0 52 52" fill="none" xmlns="http://www.w3.org/2000/svg">
<g id="Frame" clip-path="url(#clip0_477_585)">
<g id="Layer_1">
<path id="Vector" fill-rule="evenodd" clip-rule="evenodd" d="M26.0274 0.103577C40.3134 0.103577 52.002 11.7922 52.002 26.0782C52.002 40.3643 40.3134 52.0528 26.0274 52.0528C11.7413 52.0528 0.0527344 40.3643 0.0527344 26.0782C0.0527344 11.7922 11.7413 0.103577 26.0274 0.103577Z" fill="#E53935"/>
<g id="Group">
<g id="Group_2">
<path id="Vector_2" fill-rule="evenodd" clip-rule="evenodd" d="M14.731 16.8421V40.2831H34.0496V36.8454C34.0496 36.8341 34.0501 36.8228 34.0514 36.8117H18.456C18.2835 36.8117 18.1438 36.6717 18.1438 36.4995V16.8419C18.1417 16.8421 18.1393 16.8421 18.137 16.8421H14.731Z" fill="#FFFFFE"/>
<path id="Vector_3" fill-rule="evenodd" clip-rule="evenodd" d="M18.7683 36.1872H37.3237V11.8732H18.7683V36.1872ZM21.7199 15.6955H31.0334C31.2059 15.6955 31.3457 15.8355 31.3457 16.0078C31.3457 16.1802 31.2059 16.32 31.0334 16.32H21.7199C21.5475 16.32 21.4077 16.1802 21.4077 16.0078C21.4077 15.8355 21.5475 15.6955 21.7199 15.6955ZM21.7199 18.4807H31.0334C31.2059 18.4807 31.3457 18.6204 31.3457 18.7929C31.3457 18.9652 31.2059 19.1051 31.0334 19.1051H21.7199C21.5475 19.1051 21.4077 18.9652 21.4077 18.7929C21.4077 18.6204 21.5475 18.4807 21.7199 18.4807ZM21.7199 21.2657H34.3619C34.5344 21.2657 34.6741 21.4056 34.6741 21.5779C34.6741 21.7504 34.5344 21.8901 34.3619 21.8901H21.7199C21.5475 21.8901 21.4077 21.7504 21.4077 21.5779C21.4077 21.4056 21.5475 21.2657 21.7199 21.2657ZM21.7199 24.0508H27.8493C28.0216 24.0508 28.1615 24.1906 28.1615 24.3631C28.1615 24.5353 28.0216 24.6753 27.8493 24.6753H21.7199C21.5475 24.6753 21.4077 24.5353 21.4077 24.3631C21.4077 24.1906 21.5475 24.0508 21.7199 24.0508ZM21.7199 26.8358H34.3722C34.5447 26.8358 34.6844 26.9755 34.6844 27.148C34.6844 27.3205 34.5447 27.4602 34.3722 27.4602H21.7199C21.5475 27.4602 21.4077 27.3205 21.4077 27.148C21.4077 26.9755 21.5475 26.8358 21.7199 26.8358ZM21.7199 29.621H27.8493C28.0216 29.621 28.1615 29.7607 28.1615 29.9332C28.1615 30.1055 28.0216 30.2454 27.8493 30.2454H21.7199C21.5475 30.2454 21.4077 30.1055 21.4077 29.9332C21.4077 29.7607 21.5475 29.621 21.7199 29.621ZM21.7199 32.406H34.3722C34.5447 32.406 34.6844 32.5458 34.6844 32.7183C34.6844 32.8907 34.5447 33.0305 34.3722 33.0305H21.7199C21.5475 33.0305 21.4077 32.8907 21.4077 32.7183C21.4077 32.5457 21.5475 32.406 21.7199 32.406Z" fill="#FFFFFE"/>
</g>
</g>
</g>
</g>
<defs>
<clipPath id="clip0_477_585">
<rect width="52" height="52" fill="white"/>
</clipPath>
</defs>
</svg>
