<svg width="52" height="52" viewBox="0 0 52 52" fill="none" xmlns="http://www.w3.org/2000/svg">
<g id="Layer_1" clip-path="url(#clip0_477_474)">
<g id="Group">
<path id="Vector" fill-rule="evenodd" clip-rule="evenodd" d="M26 0.000518799C40.3586 0.000518799 52 11.6383 52 25.9968C52 40.3553 40.3588 52 26 52C11.6412 52 0 40.3553 0 25.9968C0 11.6383 11.641 0.000518799 26 0.000518799Z" fill="#FFC107"/>
<path id="Vector_2" fill-rule="evenodd" clip-rule="evenodd" d="M13.1642 17.6363C12.9577 17.6363 12.7537 17.6818 12.5667 17.7696C12.3797 17.8573 12.2143 17.9852 12.0823 18.144C11.9503 18.3028 11.8548 18.4888 11.8027 18.6887C11.7506 18.8885 11.7431 19.0974 11.7808 19.3005C11.8185 19.5036 11.9004 19.6959 12.0208 19.8637C12.1411 20.0316 12.2969 20.1709 12.4771 20.2718C12.6574 20.3727 12.8576 20.4327 13.0636 20.4475C13.2696 20.4624 13.4764 20.4317 13.6692 20.3576L16.4734 23.0896C16.5434 23.1579 16.6373 23.1962 16.7351 23.1964H17.6492C17.6984 23.1964 17.7472 23.1867 17.7926 23.1679C17.8381 23.149 17.8794 23.1214 17.9142 23.0866C17.949 23.0518 17.9766 23.0105 17.9954 22.965C18.0143 22.9196 18.024 22.8708 18.024 22.8216C18.024 22.7724 18.0143 22.7237 17.9954 22.6782C17.9766 22.6327 17.949 22.5914 17.9142 22.5566C17.8794 22.5218 17.8381 22.4942 17.7926 22.4754C17.7472 22.4566 17.6984 22.4469 17.6492 22.4469H16.8875L14.2773 19.9028C14.4383 19.6948 14.5378 19.4457 14.5643 19.184C14.5908 18.9222 14.5434 18.6583 14.4274 18.4221C14.3114 18.186 14.1315 17.9871 13.9081 17.8482C13.6847 17.7092 13.4268 17.6357 13.1637 17.6359L13.1642 17.6363ZM17.2527 15.428C17.2528 15.6197 17.2135 15.8094 17.1375 15.9854C17.0614 16.1613 16.95 16.3198 16.8103 16.4511L18.1844 18.8308H20.403C20.5013 18.8324 20.5951 18.8727 20.6641 18.9428C20.7331 19.0129 20.7718 19.1074 20.7718 19.2057C20.7718 19.3041 20.7331 19.3986 20.6641 19.4687C20.5951 19.5388 20.5013 19.579 20.403 19.5807H17.968C17.9021 19.5809 17.8374 19.5636 17.7803 19.5307C17.7232 19.4978 17.6759 19.4504 17.643 19.3933L16.1469 16.8027C15.8623 16.8653 15.5653 16.8379 15.2969 16.7245C15.0285 16.6111 14.8019 16.4171 14.6484 16.1695C14.4949 15.9218 14.422 15.6326 14.4398 15.3417C14.4577 15.0509 14.5653 14.7727 14.7479 14.5457C14.9305 14.3186 15.1791 14.1538 15.4594 14.074C15.7396 13.9942 16.0377 14.0034 16.3126 14.1002C16.5874 14.197 16.8254 14.3767 16.9938 14.6145C17.1621 14.8524 17.2525 15.1366 17.2525 15.428H17.2527ZM11.4117 27.4083C11.7196 27.4079 12.0188 27.3068 12.2637 27.1203C12.5086 26.9339 12.6858 26.6724 12.7681 26.3758H17.6494C17.6992 26.3766 17.7486 26.3675 17.7948 26.3491C17.841 26.3306 17.8831 26.3031 17.9185 26.2682C17.954 26.2333 17.9822 26.1917 18.0014 26.1458C18.0206 26.0999 18.0306 26.0507 18.0306 26.0009C18.0306 25.9511 18.0206 25.9019 18.0014 25.856C17.9822 25.8101 17.954 25.7685 17.9185 25.7336C17.8831 25.6987 17.841 25.6712 17.7948 25.6527C17.7486 25.6342 17.6992 25.6252 17.6494 25.626H12.7681C12.6982 25.3732 12.5591 25.1449 12.3665 24.9669C12.1738 24.789 11.9353 24.6684 11.6777 24.6187C11.4202 24.5691 11.1539 24.5924 10.9089 24.686C10.6639 24.7796 10.4499 24.9398 10.2911 25.1486C10.1323 25.3573 10.0349 25.6062 10.01 25.8673C9.98512 26.1284 10.0337 26.3913 10.1502 26.6263C10.2667 26.8613 10.4466 27.059 10.6695 27.1972C10.8924 27.3355 11.1495 27.4087 11.4117 27.4086V27.4083ZM17.6494 29.554C17.6992 29.5548 17.7486 29.5457 17.7948 29.5273C17.841 29.5088 17.8831 29.4813 17.9185 29.4464C17.954 29.4115 17.9822 29.3699 18.0014 29.324C18.0206 29.2781 18.0306 29.2288 18.0306 29.1791C18.0306 29.1293 18.0206 29.0801 18.0014 29.0342C17.9822 28.9883 17.954 28.9467 17.9185 28.9118C17.8831 28.8769 17.841 28.8494 17.7948 28.8309C17.7486 28.8124 17.6992 28.8033 17.6494 28.8042H16.7353C16.6375 28.8043 16.5436 28.8426 16.4736 28.9109L13.6692 31.6435C13.5081 31.5813 13.3369 31.5495 13.1642 31.5498C12.8457 31.5493 12.5364 31.6568 12.2867 31.8546C12.037 32.0524 11.8617 32.3289 11.7893 32.6391C11.7169 32.9493 11.7517 33.2749 11.8879 33.5628C12.0242 33.8507 12.254 34.0839 12.5398 34.2246C12.8256 34.3652 13.1506 34.4049 13.4619 34.3372C13.7731 34.2695 14.0523 34.0983 14.2538 33.8517C14.4554 33.605 14.5675 33.2974 14.5718 32.9789C14.5762 32.6604 14.4726 32.3498 14.2778 32.0977L16.888 29.554H17.6494ZM15.845 37.9805C15.6473 37.9805 15.4519 37.9388 15.2714 37.8582C15.0909 37.7776 14.9295 37.6599 14.7975 37.5128C14.6655 37.3657 14.566 37.1924 14.5054 37.0042C14.4448 36.8161 14.4246 36.6173 14.4459 36.4208C14.4672 36.2243 14.5297 36.0345 14.6292 35.8638C14.7288 35.693 14.8632 35.5452 15.0236 35.4298C15.1841 35.3144 15.3671 35.2341 15.5607 35.1941C15.7542 35.1541 15.954 35.1554 16.1471 35.1977L17.6432 32.6073C17.676 32.5501 17.7234 32.5027 17.7805 32.4698C17.8375 32.4368 17.9023 32.4196 17.9682 32.4198H20.4032C20.5015 32.4214 20.5953 32.4616 20.6643 32.5318C20.7333 32.6019 20.772 32.6963 20.772 32.7947C20.772 32.8931 20.7333 32.9875 20.6643 33.0577C20.5953 33.1278 20.5015 33.168 20.4032 33.1696H18.1844L16.8103 35.5496C17.0155 35.7428 17.158 35.9932 17.2192 36.2684C17.2803 36.5435 17.2575 36.8307 17.1535 37.0926C17.0495 37.3546 16.8692 37.5793 16.6359 37.7375C16.4027 37.8958 16.1273 37.9803 15.8455 37.9801L15.845 37.9805ZM34.3505 23.1969H35.2645C35.3623 23.1967 35.4562 23.1584 35.5262 23.0902L38.3294 20.3581C38.648 20.4821 39.0007 20.4864 39.3222 20.3703C39.6437 20.2541 39.9123 20.0255 40.0782 19.7266C40.2441 19.4277 40.2961 19.0788 40.2246 18.7445C40.1531 18.4102 39.9629 18.1132 39.6892 17.9084C39.4155 17.7035 39.0769 17.6048 38.736 17.6304C38.3951 17.656 38.075 17.8042 37.835 18.0477C37.595 18.2911 37.4514 18.6133 37.4306 18.9545C37.4098 19.2957 37.5134 19.6329 37.7221 19.9036L35.112 22.4477H34.3502C34.2509 22.4477 34.1555 22.4872 34.0852 22.5574C34.015 22.6277 33.9755 22.723 33.9755 22.8224C33.9755 22.9218 34.015 23.0172 34.0852 23.0874C34.1555 23.1577 34.2509 23.1972 34.3502 23.1972L34.3505 23.1969ZM34.3566 19.3935C34.3238 19.4506 34.2764 19.498 34.2193 19.5309C34.1623 19.5638 34.0975 19.581 34.0316 19.5809H31.5966C31.5468 19.5817 31.4974 19.5726 31.4512 19.5541C31.405 19.5356 31.3629 19.5082 31.3275 19.4733C31.292 19.4384 31.2638 19.3968 31.2446 19.3509C31.2253 19.305 31.2154 19.2557 31.2154 19.206C31.2154 19.1562 31.2253 19.1069 31.2446 19.061C31.2638 19.0151 31.292 18.9735 31.3275 18.9386C31.3629 18.9037 31.405 18.8763 31.4512 18.8578C31.4974 18.8393 31.5468 18.8302 31.5966 18.831H33.8154L35.1896 16.4513C34.9519 16.2265 34.8 15.9259 34.76 15.6012C34.72 15.2765 34.7945 14.948 34.9706 14.6723C35.1468 14.3965 35.4135 14.1908 35.7249 14.0906C36.0363 13.9903 36.3729 14.0017 36.6768 14.1228C36.9808 14.244 37.2329 14.4673 37.3899 14.7543C37.547 15.0413 37.599 15.3741 37.5372 15.6954C37.4753 16.0166 37.3034 16.3063 37.051 16.5144C36.7986 16.7226 36.4816 16.8363 36.1544 16.8359C36.0527 16.8358 35.9514 16.8247 35.8521 16.8029L34.3562 19.3935H34.3566ZM40.587 24.5928C40.2792 24.5934 39.9801 24.6947 39.7353 24.8813C39.4905 25.0678 39.3134 25.3293 39.2311 25.6259H34.3505C34.3007 25.625 34.2513 25.6341 34.2051 25.6526C34.1589 25.6711 34.1168 25.6986 34.0813 25.7335C34.0459 25.7684 34.0177 25.81 33.9984 25.8559C33.9792 25.9018 33.9693 25.951 33.9693 26.0008C33.9693 26.0505 33.9792 26.0998 33.9984 26.1457C34.0177 26.1916 34.0459 26.2332 34.0813 26.2681C34.1168 26.303 34.1589 26.3305 34.2051 26.349C34.2513 26.3674 34.3007 26.3765 34.3505 26.3757H39.2311C39.301 26.6286 39.4402 26.8569 39.6329 27.0349C39.8256 27.2129 40.0643 27.3335 40.3219 27.3831C40.5795 27.4327 40.8459 27.4093 41.0909 27.3157C41.3359 27.222 41.5499 27.0617 41.7087 26.8528C41.8676 26.644 41.9648 26.395 41.9897 26.1338C42.0145 25.8726 41.9658 25.6097 41.8492 25.3747C41.7325 25.1397 41.5526 24.942 41.3296 24.8038C41.1065 24.6657 40.8493 24.5926 40.587 24.5928ZM38.8362 34.3654C39.0427 34.3651 39.2466 34.3194 39.4335 34.2314C39.6204 34.1435 39.7856 34.0155 39.9175 33.8566C40.0494 33.6976 40.1447 33.5116 40.1966 33.3117C40.2486 33.1118 40.2559 32.903 40.2181 32.6999C40.1803 32.4969 40.0982 32.3047 39.9778 32.1369C39.8574 31.9691 39.7015 31.8298 39.5213 31.729C39.341 31.6282 39.1408 31.5683 38.9348 31.5535C38.7288 31.5387 38.5221 31.5695 38.3293 31.6435L35.5261 28.9109C35.4561 28.8426 35.3622 28.8043 35.2644 28.8042H34.3503C34.3006 28.8033 34.2512 28.8124 34.205 28.8309C34.1588 28.8494 34.1167 28.8769 34.0812 28.9118C34.0457 28.9467 34.0176 28.9883 33.9983 29.0342C33.9791 29.0801 33.9692 29.1293 33.9692 29.1791C33.9692 29.2288 33.9791 29.2781 33.9983 29.324C34.0176 29.3699 34.0457 29.4115 34.0812 29.4464C34.1167 29.4813 34.1588 29.5088 34.205 29.5273C34.2512 29.5457 34.3006 29.5548 34.3503 29.554H35.1121L37.7222 32.0977C37.5612 32.3059 37.4617 32.555 37.4352 32.8168C37.4087 33.0787 37.4562 33.3427 37.5722 33.5789C37.6883 33.8151 37.8683 34.014 38.0917 34.153C38.3152 34.292 38.5732 34.3655 38.8364 34.3652L38.8362 34.3654ZM37.5626 36.5727C37.5629 36.806 37.5052 37.0358 37.3946 37.2414C37.2841 37.4469 37.1242 37.6217 36.9293 37.7501C36.7345 37.8785 36.5107 37.9564 36.2783 37.9769C36.0458 37.9974 35.8119 37.9597 35.5976 37.8674C35.3833 37.775 35.1953 37.6308 35.0506 37.4477C34.9058 37.2647 34.8088 37.0485 34.7684 36.8187C34.7279 36.5888 34.7452 36.3526 34.8187 36.1311C34.8923 35.9096 35.0197 35.7099 35.1896 35.5498L33.8154 33.1703H31.5966C31.5468 33.1712 31.4974 33.1621 31.4512 33.1436C31.405 33.1251 31.3629 33.0976 31.3275 33.0627C31.292 33.0278 31.2638 32.9862 31.2446 32.9403C31.2253 32.8944 31.2154 32.8452 31.2154 32.7954C31.2154 32.7457 31.2253 32.6964 31.2446 32.6505C31.2638 32.6046 31.292 32.563 31.3275 32.5281C31.3629 32.4932 31.405 32.4657 31.4512 32.4472C31.4974 32.4288 31.5468 32.4197 31.5966 32.4205H34.0317C34.0976 32.4204 34.1624 32.4376 34.2195 32.4705C34.2765 32.5035 34.3239 32.5509 34.3567 32.608L35.8526 35.1984C36.0581 35.1531 36.2713 35.1545 36.4762 35.2025C36.6812 35.2505 36.8728 35.3439 37.0369 35.4758C37.201 35.6076 37.3334 35.7746 37.4244 35.9645C37.5154 36.1543 37.5626 36.3622 37.5626 36.5727ZM25.9999 18.0554L19.4939 21.8114L25.9999 25.5673L32.5058 21.8114L25.9999 18.0554ZM26.3748 33.7289L32.8808 29.9729V22.4607L26.3748 26.2172V33.7289ZM19.119 22.4607V29.9731L25.625 33.7289V26.2172L19.119 22.4607ZM18.3692 21.8114V30.1896C18.3691 30.2554 18.3864 30.3202 18.4193 30.3772C18.4522 30.4343 18.4996 30.4817 18.5567 30.5146L25.8125 34.7035C25.8695 34.7363 25.9341 34.7536 25.9999 34.7536C26.0657 34.7536 26.1303 34.7363 26.1874 34.7035L33.4432 30.5146C33.5002 30.4816 33.5475 30.4343 33.5804 30.3772C33.6133 30.3201 33.6305 30.2554 33.6304 30.1896V21.8114C33.6305 21.7455 33.6133 21.6808 33.5804 21.6238C33.5475 21.5667 33.5002 21.5193 33.4432 21.4864L26.1874 17.2975C26.1304 17.2646 26.0657 17.2473 25.9999 17.2473C25.9341 17.2473 25.8695 17.2646 25.8125 17.2975L18.5567 21.4864C18.4996 21.5193 18.4522 21.5667 18.4193 21.6237C18.3864 21.6808 18.3691 21.7455 18.3692 21.8114Z" fill="white"/>
</g>
</g>
<defs>
<clipPath id="clip0_477_474">
<rect width="52" height="52" fill="white"/>
</clipPath>
</defs>
</svg>
