<svg width="52" height="52" viewBox="0 0 52 52" fill="none" xmlns="http://www.w3.org/2000/svg">
<g id="Layer_3">
<g id="Group">
<path id="Vector" d="M26.335 1C21.3242 1 16.426 2.48587 12.2596 5.26972C8.09332 8.05356 4.84607 12.0103 2.92852 16.6397C1.01098 21.2691 0.50926 26.3631 1.48682 31.2776C2.46437 36.1921 4.8773 40.7064 8.42046 44.2495C11.9636 47.7927 16.4779 50.2056 21.3924 51.1832C26.3069 52.1607 31.4009 51.659 36.0303 49.7415C40.6597 47.8239 44.6165 44.5767 47.4003 40.4104C50.1841 36.244 51.67 31.3458 51.67 26.335C51.67 19.6157 49.0008 13.1717 44.2496 8.42045C39.4983 3.66922 33.0543 1 26.335 1ZM42.4573 37.8509C42.4562 38.7668 42.0919 39.645 41.4443 40.2927C40.7966 40.9403 39.9185 41.3046 39.0025 41.3057H13.6675C12.7516 41.3046 11.8734 40.9403 11.2258 40.2927C10.5781 39.645 10.2138 38.7668 10.2127 37.8509V14.8191C10.2138 13.9031 10.5781 13.025 11.2258 12.3773C11.8734 11.7297 12.7516 11.3654 13.6675 11.3643H21.6476C22.2164 11.3639 22.7766 11.5041 23.2781 11.7726C23.7796 12.041 24.207 12.4293 24.5222 12.9028L25.0321 13.6675H37.8509C38.7669 13.6685 39.645 14.0329 40.2927 14.6805C40.9403 15.3282 41.3047 16.2063 41.3057 17.1223V19.1721C41.6667 19.4933 41.9558 19.887 42.1543 20.3275C42.3527 20.768 42.456 21.2455 42.4573 21.7286V37.8509Z" fill="#2196F3"/>
<path id="Vector_2" d="M39.0025 20.577H28.7192C28.1504 20.5774 27.5902 20.4372 27.0887 20.1688C26.5872 19.9003 26.1598 19.5121 25.8446 19.0385L22.6059 14.1804C22.501 14.0224 22.3585 13.8928 22.1913 13.8033C22.024 13.7138 21.8372 13.6671 21.6475 13.6675H13.6675C13.3622 13.6678 13.0695 13.7893 12.8536 14.0052C12.6377 14.2211 12.5162 14.5138 12.5159 14.8191V37.8509C12.5162 38.1562 12.6377 38.4489 12.8536 38.6648C13.0695 38.8807 13.3622 39.0021 13.6675 39.0025H39.0025C39.3078 39.0021 39.6005 38.8807 39.8164 38.6648C40.0322 38.4489 40.1537 38.1562 40.154 37.8509V21.7286C40.1537 21.4233 40.0322 21.1306 39.8164 20.9147C39.6005 20.6988 39.3078 20.5774 39.0025 20.577Z" fill="#2196F3"/>
<path id="Vector_3" d="M28.7195 18.2739H39.0027V17.1223C39.0024 16.817 38.8809 16.5243 38.665 16.3084C38.4492 16.0925 38.1565 15.971 37.8511 15.9707H26.5676L27.7611 17.7609C27.8661 17.919 28.0085 18.0485 28.1758 18.138C28.343 18.2275 28.5298 18.2742 28.7195 18.2739Z" fill="#2196F3"/>
</g>
</g>
</svg>
