<svg width="52" height="52" viewBox="0 0 52 52" fill="none" xmlns="http://www.w3.org/2000/svg">
<g id="Layer_1" clip-path="url(#clip0_467_200)">
<path id="Vector" d="M51.0712 19.0972C49.9174 14.8918 47.6896 10.9195 44.3854 7.61534C34.2316 -2.53845 17.769 -2.53845 7.61531 7.61534C-2.53838 17.7691 -2.53849 34.2318 7.61531 44.3855C10.9194 47.6896 14.8918 49.9175 19.0971 51.0712L51.0712 19.0972Z" fill="#FF6176"/>
<path id="Vector_2" d="M44.3855 44.3856C51.2353 37.5358 53.463 27.8154 51.0713 19.0973L41.9875 10.0135L26.0004 26.0005L11.6121 43.5863L19.0971 51.0713C27.8153 53.4631 37.5357 51.2352 44.3855 44.3856Z" fill="#FF6176"/>
<path id="Vector_3" d="M10.0134 41.9874L11.6121 43.5862L18.8063 36.392L17.2076 33.1946L10.0134 41.9874Z" fill="#1C2D62"/>
<path id="Vector_4" d="M20.405 34.7933L24.4017 30.7964L22.0037 28.3984L17.2075 33.1946L20.405 34.7933Z" fill="#367596"/>
<path id="Vector_5" d="M22.803 29.1977L21.2043 27.5992L17.2075 31.5959L18.0068 33.9939L22.803 29.1977Z" fill="#88ACB5"/>
<path id="Vector_6" d="M15.6088 33.1946L8.41455 40.3887L10.0133 41.9874L18.0068 33.9939L15.6088 33.1946Z" fill="#27467A"/>
<path id="Vector_7" d="M18.8062 33.1946H17.2075V34.7933L18.8062 36.392L20.405 34.7933L18.8062 33.1946Z" fill="#88ACB5"/>
<path id="Vector_8" d="M15.6093 33.1947L17.208 34.7934L18.8067 33.1947L17.208 31.5961L15.6093 33.1947Z" fill="#B7D9DD"/>
<path id="Vector_9" d="M41.9874 10.0134L28.3985 17.2076L21.2043 30.7965C26.9434 36.5356 36.2484 36.5356 41.9874 30.7965C47.7265 25.0574 47.7265 15.7525 41.9874 10.0134Z" fill="#88ACB5"/>
<path id="Vector_10" d="M21.2045 10.0134C15.4654 15.7525 15.4654 25.0575 21.2045 30.7966L41.9875 10.0134C36.2484 4.27437 26.9435 4.27437 21.2045 10.0134Z" fill="#B7D9DD"/>
<path id="Vector_11" d="M31.5958 9.10049L27.4851 20.405L31.5958 31.7095C37.8391 31.7095 42.9003 26.6483 42.9003 20.405C42.9003 14.1616 37.8393 9.10049 31.5958 9.10049Z" fill="#D0FBFD"/>
<path id="Vector_12" d="M20.2913 20.405C20.2913 26.6483 25.3525 31.7095 31.5958 31.7095V9.10049C25.3525 9.10049 20.2913 14.1616 20.2913 20.405Z" fill="white"/>
<path id="Vector_13" d="M28.2045 24.9268V20.405L27.0741 19.2746L25.9436 20.405V24.9268H28.2045Z" fill="#FF4719"/>
<path id="Vector_14" d="M28.2047 15.8828H25.9438V20.4047H28.2047V15.8828Z" fill="#FF754F"/>
<path id="Vector_15" d="M32.7262 27.1877V20.405L31.5957 19.2746L30.4653 20.405V27.1877H32.7262Z" fill="#FF4719"/>
<path id="Vector_16" d="M32.7267 13.6219H30.4658V20.4047H32.7267V13.6219Z" fill="#FF754F"/>
<path id="Vector_17" d="M37.2482 24.9268V20.405L36.1178 19.2746L34.9873 20.405V24.9268H37.2482Z" fill="#FF4719"/>
<path id="Vector_18" d="M37.2484 15.8828H34.9875V20.4047H37.2484V15.8828Z" fill="#FF754F"/>
</g>
<defs>
<clipPath id="clip0_467_200">
<rect width="52" height="52" fill="white"/>
</clipPath>
</defs>
</svg>
