<svg width="52" height="52" viewBox="0 0 52 52" fill="none" xmlns="http://www.w3.org/2000/svg">
<g id="bold" clip-path="url(#clip0_477_574)">
<path id="Vector" d="M42.25 52H9.75C4.36475 52 0 47.6353 0 42.25V9.75C0 4.36475 4.36475 0 9.75 0H42.25C47.6353 0 52 4.36475 52 9.75V42.25C52 47.6353 47.6353 52 42.25 52Z" fill="#F5E6FE"/>
<path id="Vector_2" d="M34.125 39H17.875C16.978 39 16.25 38.272 16.25 37.375V36.2911C16.25 35.3941 16.978 34.6661 17.875 34.6661H34.125C35.022 34.6661 35.75 35.3941 35.75 36.2911V37.375C35.75 38.272 35.0236 39 34.125 39Z" fill="#BE63F9"/>
<path id="Vector_3" d="M34.125 32.5H17.875C16.978 32.5 16.25 31.772 16.25 30.875V29.7911C16.25 28.8941 16.978 28.1661 17.875 28.1661H34.125C35.022 28.1661 35.75 28.8941 35.75 29.7911V30.875C35.75 31.772 35.0236 32.5 34.125 32.5Z" fill="#D9A4FC"/>
<path id="Vector_4" d="M34.125 21.6661H22.75V18.4161C22.75 16.6238 24.2076 15.1661 26 15.1661C26.8612 15.1661 27.6803 15.5057 28.2847 16.1005C28.5025 16.328 28.678 16.5571 28.8064 16.7846C29.1021 17.3046 29.7619 17.4882 30.2835 17.1925C30.8035 16.8967 30.9871 16.2354 30.6914 15.7154C30.4752 15.3335 30.1909 14.9581 29.8269 14.5795C28.7934 13.5606 27.4349 13 26 13C23.0132 13 20.5839 15.4294 20.5839 18.4161V21.6661H17.875C16.978 21.6661 16.25 22.3941 16.25 23.2911V24.375C16.25 25.272 16.978 26 17.875 26H34.125C35.022 26 35.75 25.272 35.75 24.375V23.2911C35.75 22.3941 35.0236 21.6661 34.125 21.6661Z" fill="#BE63F9"/>
</g>
<defs>
<clipPath id="clip0_477_574">
<rect width="52" height="52" fill="white"/>
</clipPath>
</defs>
</svg>
