<svg width="52" height="52" viewBox="0 0 52 52" fill="none" xmlns="http://www.w3.org/2000/svg">
<g id="Layer_1" clip-path="url(#clip0_477_483)">
<g id="Group">
<path id="Vector" d="M26 52C40.3594 52 52 40.3594 52 26C52 11.6406 40.3594 0 26 0C11.6406 0 0 11.6406 0 26C0 40.3594 11.6406 52 26 52Z" fill="#FFA726"/>
<g id="Group_2">
<path id="Vector_2" fill-rule="evenodd" clip-rule="evenodd" d="M36.0141 24.7203C36.0141 24.3344 35.6993 24.0094 35.3032 24.0094C34.9071 24.0094 34.5922 24.3242 34.5922 24.7203V27.1375C34.5922 27.5641 34.2469 27.9094 33.8204 27.9094C33.3227 27.9094 32.9063 27.6758 32.9063 27.1375V23.6336C32.9063 23.2477 32.5915 22.9227 32.1954 22.9227C31.7993 22.9227 31.4844 23.2375 31.4844 23.6336V27.1375C31.4844 27.5641 31.1391 27.9094 30.7125 27.9094C30.2149 27.9094 29.7985 27.6758 29.7985 27.1375V22.3641C29.7985 21.9781 29.4836 21.6531 29.0875 21.6531C28.6915 21.6531 28.3766 21.968 28.3766 22.3641V27.1375C28.3766 27.5641 28.0313 27.9094 27.6047 27.9094C27.4016 27.9094 27.1782 27.8789 27.0055 27.757C26.7922 27.6148 26.6907 27.3813 26.6907 27.1375V20.1094C26.6907 19.7234 26.3758 19.3984 25.9797 19.3984C25.5938 19.3984 25.2688 19.7133 25.2688 20.1094V27.2289C25.2688 27.5438 25.1875 27.8078 25.086 28.1023C25.0149 28.2953 24.954 28.4883 24.9032 28.6812C24.8321 28.9758 24.8016 29.2703 24.7915 29.5648C24.7813 29.707 24.6493 29.8187 24.5071 29.7883C24.1008 29.6969 23.593 29.3312 23.268 29.0773L23.2274 29.0469C22.5571 29.4328 21.8868 29.8188 21.2063 30.2148L22.9024 32.4797C23.1461 32.8047 23.4204 33.1094 23.6946 33.4039L24.0297 33.7695C24.4055 34.2063 24.7102 34.643 24.9336 35.1711C25.2688 35.943 25.4211 36.8164 25.5125 37.6492L25.5227 37.7406H26.5891V33.5766L26.193 33.1602L26.1219 33.1906C25.9797 33.2719 25.8172 33.3023 25.6547 33.3023C25.0758 33.3023 24.6188 32.8352 24.6188 32.2664C24.6188 31.6875 25.086 31.2305 25.6547 31.2305C26.2235 31.2305 26.6907 31.6977 26.6907 32.2664C26.6907 32.4492 26.6399 32.6219 26.5586 32.7742L26.5282 32.8352L26.9852 33.3125C27.0258 33.3531 27.0461 33.4141 27.0461 33.475V37.7406H29.6157V31.7078L29.5446 31.6875C29.1079 31.5555 28.8133 31.1492 28.8133 30.6922C28.8133 30.1133 29.2805 29.6562 29.8493 29.6562C30.4282 29.6562 30.8852 30.1234 30.8852 30.6922C30.8852 31.1492 30.5907 31.5555 30.154 31.6875L30.0829 31.7078V37.7406H32.6524V33.475C32.6524 33.4141 32.6727 33.3531 32.7133 33.3125L33.1704 32.8352L33.1399 32.7742C33.0485 32.6219 33.0079 32.4391 33.0079 32.2664C33.0079 31.6875 33.475 31.2305 34.0438 31.2305C34.6227 31.2305 35.0797 31.6977 35.0797 32.2664C35.0797 32.8453 34.6125 33.3023 34.0438 33.3023C33.8813 33.3023 33.729 33.2719 33.5766 33.1906L33.5055 33.1602L33.1094 33.5766V37.7406H34.9477L34.968 37.6695C35.2118 36.8266 35.4149 35.9836 35.5774 35.1203C35.7196 34.3687 35.811 33.607 35.8719 32.8555C35.9938 31.3828 35.9836 29.9102 35.9735 28.4273C36.0141 27.2086 36.0141 25.9594 36.0141 24.7203Z" fill="#FFFFFE"/>
<path id="Vector_3" fill-rule="evenodd" clip-rule="evenodd" d="M25.5532 38.2281H34.9173V40.6352H25.5532V38.2281Z" fill="#FFFFFE"/>
<path id="Vector_4" fill-rule="evenodd" clip-rule="evenodd" d="M25.1064 32.2867C25.1064 32.6015 25.3604 32.8656 25.6854 32.8656C26.0002 32.8656 26.2643 32.6117 26.2643 32.2867C26.2643 31.9719 26.0104 31.7078 25.6854 31.7078C25.3604 31.7078 25.1064 31.9515 25.1064 32.2867Z" fill="#FFFFFE"/>
<path id="Vector_5" fill-rule="evenodd" clip-rule="evenodd" d="M30.4586 30.7125C30.4586 30.3976 30.2047 30.1336 29.8797 30.1336C29.5648 30.1336 29.3008 30.3875 29.3008 30.7125C29.3008 31.0375 29.5547 31.2914 29.8797 31.2914C30.2047 31.2812 30.4586 31.0273 30.4586 30.7125Z" fill="#FFFFFE"/>
<path id="Vector_6" fill-rule="evenodd" clip-rule="evenodd" d="M34.0743 32.8555C34.3891 32.8555 34.6532 32.6016 34.6532 32.2766C34.6532 31.9617 34.3993 31.6977 34.0743 31.6977C33.7493 31.6977 33.4954 31.9516 33.4954 32.2766C33.5055 32.5914 33.7696 32.8555 34.0743 32.8555Z" fill="#FFFFFE"/>
<path id="Vector_7" fill-rule="evenodd" clip-rule="evenodd" d="M22.0289 27.8687C21.5515 27.0765 20.9422 26.65 20.3633 26.6805C20.0383 26.7008 19.7742 26.8836 19.6523 27.1476C19.4695 27.564 19.6828 28.0109 19.9469 28.3359L20.9625 29.6969L22.6992 28.6914C22.4554 28.4375 22.2015 28.1429 22.0289 27.8687Z" fill="#FFFFFE"/>
<path id="Vector_8" fill-rule="evenodd" clip-rule="evenodd" d="M35.5673 11.3648C34.3993 11.3648 33.4345 12.3195 33.4345 13.4976C33.4345 13.6195 33.4446 13.7516 33.4649 13.8633L27.4423 17.1742C27.0563 16.8289 26.5485 16.6156 25.9899 16.6156C25.4313 16.6156 24.9235 16.8187 24.5376 17.1742L18.5149 13.8633C18.5353 13.7414 18.5454 13.6195 18.5454 13.4976C18.5454 12.3297 17.5907 11.3648 16.4126 11.3648C15.2345 11.3648 14.2798 12.3195 14.2798 13.4976C14.2798 14.6758 15.2345 15.6305 16.4126 15.6305C16.9813 15.6305 17.4993 15.407 17.8853 15.0414L23.8571 18.332C23.8267 18.4844 23.8063 18.6469 23.8063 18.8094C23.8063 19.5305 24.1517 20.1805 24.7103 20.5867V20.1195C24.7103 19.4187 25.279 18.85 25.9798 18.85C26.6806 18.85 27.2493 19.4187 27.2493 20.1195V20.5867C27.8181 20.1805 28.1532 19.5305 28.1532 18.8094C28.1532 18.6469 28.1329 18.4945 28.1024 18.332L34.0743 15.0414C34.4603 15.3969 34.9681 15.6305 35.547 15.6305C36.7149 15.6305 37.6798 14.6758 37.6798 13.4976C37.7001 12.3297 36.7454 11.3648 35.5673 11.3648Z" fill="#FFFFFE"/>
</g>
</g>
</g>
<defs>
<clipPath id="clip0_477_483">
<rect width="52" height="52" fill="white"/>
</clipPath>
</defs>
</svg>
