<svg width="52" height="52" viewBox="0 0 52 52" fill="none" xmlns="http://www.w3.org/2000/svg">
<g id="svg4763" clip-path="url(#clip0_477_430)">
<g id="layer1">
<g id="g4176">
<path id="path4144" d="M52 26.0005C52 40.3469 40.3464 52.0005 26 52.0005C11.6536 52.0005 0 40.3469 0 26.0005C0 11.654 11.6536 0.000427246 26 0.000427246C40.3464 0.000427246 52 11.654 52 26.0005Z" fill="#8BC34A"/>
<g id="Group">
<path id="path4146" fill-rule="evenodd" clip-rule="evenodd" d="M26.4641 13.2325C27.2998 14.1147 29.1106 16.1112 30.5498 17.9219L26.4641 19.9182V13.2325Z" fill="white"/>
<path id="path4148" fill-rule="evenodd" clip-rule="evenodd" d="M25.5356 13.3718V19.872L22.0999 17.9219C23.4463 16.1112 24.8856 14.254 25.5356 13.3718Z" fill="white"/>
<path id="path4150" fill-rule="evenodd" clip-rule="evenodd" d="M31.1534 18.6646C31.2927 18.8969 31.4784 19.129 31.6177 19.3148C32.4534 20.4754 33.1034 21.6824 33.6605 22.936L33.1962 22.1468L26.4641 26.0468V20.986L31.1534 18.6646Z" fill="white"/>
<path id="path4152" fill-rule="evenodd" clip-rule="evenodd" d="M21.5426 18.6646L25.5355 20.9397V26.0468L19.1748 22.3326C19.732 21.2646 20.382 20.2433 21.0783 19.3148C21.2176 19.1283 21.4033 18.8969 21.5426 18.6646Z" fill="white"/>
<path id="path4154" fill-rule="evenodd" clip-rule="evenodd" d="M33.6605 22.936C34.357 24.5612 34.7284 26.2326 34.8212 27.8576L26.4641 32.3147V27.1611L33.6605 22.936Z" fill="white"/>
<path id="path4156" fill-rule="evenodd" clip-rule="evenodd" d="M18.757 23.1683L25.5355 27.1611V32.3147L17.2712 27.9041C17.5034 26.2789 18.0141 24.7005 18.757 23.1683Z" fill="white"/>
<path id="path4158" fill-rule="evenodd" clip-rule="evenodd" d="M17.1785 28.8791L25.5356 33.3361V38.7682C23.5392 38.5818 21.5427 37.5612 20.0571 36.2613C18.6642 35.054 17.9213 32.8719 17.3642 31.247C17.2249 30.4575 17.1785 29.6683 17.1785 28.8791Z" fill="white"/>
<path id="path4160" fill-rule="evenodd" clip-rule="evenodd" d="M34.8212 28.8791C34.7748 29.6683 34.6355 30.4575 34.4034 31.2004C33.8927 32.8254 33.057 35.0077 31.7105 36.2613C30.3176 37.6077 28.3677 38.6754 26.4641 38.7682V33.3361L34.8212 28.8791Z" fill="white"/>
</g>
</g>
</g>
</g>
<defs>
<clipPath id="clip0_477_430">
<rect width="52" height="52" fill="white"/>
</clipPath>
</defs>
</svg>
