<svg width="52" height="52" viewBox="0 0 52 52" fill="none" xmlns="http://www.w3.org/2000/svg">
<g id="Frame 3">
<g clip-path="url(#clip0_466_144)">
<g id="g7402">
<path id="rect5852" d="M45.8095 0H6.19048C2.77157 0 0 2.77157 0 6.19048V45.8095C0 49.2284 2.77157 52 6.19048 52H45.8095C49.2284 52 52 49.2284 52 45.8095V6.19048C52 2.77157 49.2284 0 45.8095 0Z" fill="#FDC0C4"/>
<path id="path92421-9-8" d="M21.296 9.28995C21.163 9.27441 21.0285 9.30239 20.9127 9.36975L8.97535 16.288C8.61741 16.4955 8.55988 16.989 8.86049 17.2734L13.1612 21.3358L8.86049 25.3994C8.55988 25.6837 8.61741 26.1773 8.97535 26.3848L13.4406 28.9722V35.1759C13.4408 35.3969 13.5587 35.601 13.7501 35.7115C17.7437 38.0133 21.7241 40.355 25.7226 42.6394C25.8081 42.6859 25.9034 42.7116 26.0007 42.7143C26.1094 42.7142 26.2161 42.6854 26.3102 42.6309C30.2901 40.3242 34.2708 38.0178 38.2512 35.7115C38.4421 35.6007 38.5596 35.3966 38.5595 35.1759V28.9722L43.0248 26.3848C43.3827 26.1773 43.4403 25.6837 43.1396 25.3994L38.84 21.3358L43.1396 17.2734C43.4403 16.989 43.3827 16.4955 43.0248 16.288L31.0873 9.36975C30.8502 9.23263 30.5512 9.26754 30.3521 9.4556L26.0007 13.5664L21.649 9.4556C21.5522 9.36379 21.4285 9.30569 21.296 9.28995ZM21.134 10.6731L24.9717 14.2991L14.1528 20.5692L10.3138 16.9433L21.134 10.6731ZM30.866 10.6731L41.6863 16.9433L37.8486 20.5692L27.0284 14.2991L30.866 10.6731ZM26.0007 15.1333L36.706 21.337L26.0007 27.5419L15.2941 21.337L26.0007 15.1333ZM14.1504 22.1047L24.9705 28.3749L21.134 31.9997L10.3138 25.7295L14.1504 22.1047ZM37.8498 22.1047L41.6863 25.7295L30.866 31.9997L27.0296 28.3749L37.8498 22.1047ZM14.6787 29.6904L20.9127 33.303C21.1501 33.4408 21.4497 33.4058 21.649 33.2172L25.3816 29.6904V41.0205L14.6787 34.8192V29.6904ZM26.6197 29.6904L30.3521 33.2172C30.5512 33.4052 30.8502 33.4401 31.0873 33.303L37.3214 29.6904V34.8192L26.6197 41.0205V29.6904Z" fill="#F90716"/>
</g>
</g>
</g>
<defs>
<clipPath id="clip0_466_144">
<rect width="52" height="52" rx="26" fill="white"/>
</clipPath>
</defs>
</svg>
