<svg width="20" height="20" viewBox="0 0 20 20" fill="none" xmlns="http://www.w3.org/2000/svg">
<g id="google-icon 1" clip-path="url(#clip0_53_24)">
<g id="Group">
<g id="Clip path group">
<mask id="mask0_53_24" style="mask-type:luminance" maskUnits="userSpaceOnUse" x="0" y="0" width="20" height="20">
<g id="B">
<path id="Vector" d="M19.6307 8.18182H10.3125V12.0455H15.6761C15.1761 14.5 13.0852 15.9091 10.3125 15.9091C7.03978 15.9091 4.40341 13.2727 4.40341 10C4.40341 6.72727 7.03978 4.09091 10.3125 4.09091C11.7216 4.09091 12.9943 4.59091 13.9943 5.40909L16.9034 2.5C15.1307 0.954546 12.858 0 10.3125 0C4.76705 0 0.3125 4.45455 0.3125 10C0.3125 15.5455 4.76705 20 10.3125 20C15.3125 20 19.858 16.3636 19.858 10C19.858 9.40909 19.7671 8.77273 19.6307 8.18182Z" fill="white"/>
</g>
</mask>
<g mask="url(#mask0_53_24)">
<path id="Vector_2" d="M-0.596619 15.9091V4.09091L7.13066 10L-0.596619 15.9091Z" fill="#FBBC05"/>
</g>
</g>
<g id="Clip path group_2">
<mask id="mask1_53_24" style="mask-type:luminance" maskUnits="userSpaceOnUse" x="0" y="0" width="20" height="20">
<g id="B_2">
<path id="Vector_3" d="M19.6307 8.18182H10.3125V12.0455H15.6761C15.1761 14.5 13.0852 15.9091 10.3125 15.9091C7.03978 15.9091 4.40341 13.2727 4.40341 10C4.40341 6.72727 7.03978 4.09091 10.3125 4.09091C11.7216 4.09091 12.9943 4.59091 13.9943 5.40909L16.9034 2.5C15.1307 0.954546 12.858 0 10.3125 0C4.76705 0 0.3125 4.45455 0.3125 10C0.3125 15.5455 4.76705 20 10.3125 20C15.3125 20 19.858 16.3636 19.858 10C19.858 9.40909 19.7671 8.77273 19.6307 8.18182Z" fill="white"/>
</g>
</mask>
<g mask="url(#mask1_53_24)">
<path id="Vector_4" d="M-0.596619 4.09091L7.13066 10L10.3125 7.22728L21.2216 5.45455V-0.909088H-0.596619V4.09091Z" fill="#EA4335"/>
</g>
</g>
<g id="Clip path group_3">
<mask id="mask2_53_24" style="mask-type:luminance" maskUnits="userSpaceOnUse" x="0" y="0" width="20" height="20">
<g id="B_3">
<path id="Vector_5" d="M19.6307 8.18182H10.3125V12.0455H15.6761C15.1761 14.5 13.0852 15.9091 10.3125 15.9091C7.03978 15.9091 4.40341 13.2727 4.40341 10C4.40341 6.72727 7.03978 4.09091 10.3125 4.09091C11.7216 4.09091 12.9943 4.59091 13.9943 5.40909L16.9034 2.5C15.1307 0.954546 12.858 0 10.3125 0C4.76705 0 0.3125 4.45455 0.3125 10C0.3125 15.5455 4.76705 20 10.3125 20C15.3125 20 19.858 16.3636 19.858 10C19.858 9.40909 19.7671 8.77273 19.6307 8.18182Z" fill="white"/>
</g>
</mask>
<g mask="url(#mask2_53_24)">
<path id="Vector_6" d="M-0.596619 15.9091L13.0398 5.45455L16.6307 5.9091L21.2216 -0.909088V20.9091H-0.596619V15.9091Z" fill="#34A853"/>
</g>
</g>
<g id="Clip path group_4">
<mask id="mask3_53_24" style="mask-type:luminance" maskUnits="userSpaceOnUse" x="0" y="0" width="20" height="20">
<g id="B_4">
<path id="Vector_7" d="M19.6307 8.18182H10.3125V12.0455H15.6761C15.1761 14.5 13.0852 15.9091 10.3125 15.9091C7.03978 15.9091 4.40341 13.2727 4.40341 10C4.40341 6.72727 7.03978 4.09091 10.3125 4.09091C11.7216 4.09091 12.9943 4.59091 13.9943 5.40909L16.9034 2.5C15.1307 0.954546 12.858 0 10.3125 0C4.76705 0 0.3125 4.45455 0.3125 10C0.3125 15.5455 4.76705 20 10.3125 20C15.3125 20 19.858 16.3636 19.858 10C19.858 9.40909 19.7671 8.77273 19.6307 8.18182Z" fill="white"/>
</g>
</mask>
<g mask="url(#mask3_53_24)">
<path id="Vector_8" d="M21.2216 20.9091L7.13068 10L5.3125 8.63637L21.2216 4.09091V20.9091Z" fill="#4285F4"/>
</g>
</g>
</g>
</g>
<defs>
<clipPath id="clip0_53_24">
<rect width="20" height="20" fill="white"/>
</clipPath>
</defs>
</svg>
