<svg xmlns="http://www.w3.org/2000/svg" width="36" height="33" viewBox="0 0 36 33" fill="none">
  <g clip-path="url(#clip0_857_962)">
    
    <path d="M34.838 13.0684C33.6426 12.5632 32.3271 12.285 30.9481 12.285C30.2701 12.285 29.6097 12.3519 28.9687 12.4804C28.2377 12.6265 27.5349 12.8519 26.871 13.1476C24.3336 14.2777 22.3525 16.4288 21.459 19.078C21.346 19.4107 21.2506 19.7504 21.1729 20.099C21.0176 20.796 20.9363 21.5213 20.9363 22.2659C20.9363 22.3169 20.9363 22.3697 20.9381 22.4208C20.9381 22.456 20.9381 22.4894 20.9381 22.5229V22.5405C20.9381 22.6496 20.9346 22.7588 20.9346 22.8679V22.889C20.9346 23.1443 20.9416 23.3995 20.954 23.653C20.984 24.2814 21.0493 24.8993 21.15 25.5048C21.2224 25.9502 21.3124 26.3885 21.4219 26.8215C21.4484 26.9306 21.4766 27.0398 21.5067 27.1472C21.5349 27.251 21.5649 27.3549 21.595 27.457C21.6744 27.7298 21.7627 28.0009 21.858 28.2667C21.9905 28.6399 22.1353 29.006 22.2942 29.3651C22.4407 29.7049 22.6014 30.0358 22.7745 30.3614C22.8027 30.4178 22.8327 30.4741 22.8628 30.5304C23.2777 31.3032 23.7545 32.0372 24.2859 32.7273C21.0405 31.4229 18.1164 29.4919 15.6656 27.0838L13.8557 25.114C13.8557 25.114 13.8504 25.107 13.8469 25.1035C13.8416 25.0982 13.8363 25.0929 13.8327 25.0876L12.9146 24.0895C12.9234 24.0438 12.9322 23.9962 12.941 23.9505C12.9463 23.9188 12.9516 23.8889 12.9587 23.8572C12.9711 23.7885 12.9852 23.7199 13.0011 23.653C13.1829 22.7482 13.4425 21.8716 13.7727 21.0284C13.8239 20.8964 13.8769 20.7661 13.9316 20.6376C13.9334 20.6341 13.9334 20.6306 13.9352 20.6288C13.9793 20.5232 14.0234 20.4211 14.0711 20.3172C14.0746 20.3067 14.0799 20.2961 14.0852 20.2856C14.0941 20.2644 14.1047 20.2415 14.1135 20.2204C14.1541 20.1306 14.1965 20.0391 14.2406 19.9493C14.3007 19.8226 14.3625 19.6959 14.426 19.5726C14.4578 19.5093 14.4914 19.4459 14.5231 19.3843C14.5532 19.328 14.5832 19.2716 14.615 19.2153C14.6467 19.1537 14.6803 19.0938 14.7138 19.034C14.7686 18.9354 14.8251 18.8368 14.8816 18.74C14.9399 18.6397 14.9999 18.5393 15.0617 18.4408C15.0952 18.3844 15.1306 18.3316 15.1641 18.2771C15.1729 18.2647 15.18 18.2507 15.1888 18.2383C15.2489 18.1433 15.3089 18.05 15.3707 17.9585C15.4325 17.8634 15.4978 17.7701 15.5632 17.6768C15.6232 17.5888 15.685 17.5025 15.7468 17.4163C15.7945 17.3494 15.8422 17.2843 15.8916 17.2209C15.9093 17.1962 15.9287 17.1698 15.9481 17.147C15.9993 17.0783 16.0505 17.0114 16.1035 16.9445C16.1671 16.8618 16.2324 16.7808 16.2977 16.6998C16.6615 16.2545 17.0464 15.8303 17.4525 15.4272C17.5408 15.3391 17.6291 15.2529 17.7191 15.1684C19.3401 13.6281 21.2806 12.4171 23.4313 11.6496C23.6414 11.5721 23.8533 11.5017 24.067 11.4348C24.127 11.4155 24.1871 11.3979 24.2471 11.3803C24.3071 11.3627 24.3689 11.3451 24.429 11.3274C24.4307 11.3274 24.4307 11.3257 24.4325 11.3257C24.4378 11.3257 24.4431 11.3222 24.4484 11.3222C24.489 11.3116 24.5279 11.2993 24.5685 11.2887C24.5914 11.2817 24.6144 11.2764 24.6373 11.2694C24.708 11.25 24.7804 11.2306 24.8527 11.2113C24.9658 11.1831 25.077 11.1549 25.19 11.1303C25.2465 11.1162 25.303 11.1021 25.3613 11.0898C25.4655 11.0669 25.5714 11.044 25.6774 11.0247C25.7321 11.0106 25.7886 11 25.8451 10.9912C25.9616 10.9666 26.0782 10.9455 26.1965 10.9261C26.2336 10.9191 26.2689 10.9138 26.306 10.9085C26.4949 10.8768 26.6838 10.8487 26.8745 10.824H26.8763C26.901 10.8205 26.9257 10.817 26.9505 10.8152C27.0635 10.8011 27.1782 10.7888 27.293 10.7782C27.3071 10.7765 27.3195 10.7747 27.3319 10.773C27.4784 10.7589 27.6232 10.7466 27.7698 10.7378C27.8969 10.7272 28.024 10.7201 28.1512 10.7149C28.1988 10.7113 28.2465 10.7096 28.2942 10.7096C28.333 10.7061 28.3736 10.7061 28.4143 10.7043C28.4531 10.7025 28.4919 10.7025 28.5326 10.7025C28.5714 10.699 28.612 10.6973 28.6509 10.6973H28.6544C30.9375 10.7659 33.1182 11.6144 34.8363 13.0684H34.838Z" fill="url(#paint3_linear_857_962)"/>
    <path d="M34.9705 9.82241C33.9729 7.83856 32.3325 6.23318 30.3213 5.27734C30.2772 5.26326 30.233 5.25094 30.1889 5.23862L30.0423 4.6454C29.7704 3.83391 29.5091 2.64923 24.9746 1.26389C24.6021 1.14947 24.1977 1.03329 23.7633 0.91711H23.7616C21.5579 0.318612 19.2395 0 16.8451 0C14.4508 0 11.9364 0.346777 9.64974 0.994563C9.37428 1.07202 9.10059 1.15475 8.82867 1.24276C8.8269 1.2498 8.82514 1.25685 8.82337 1.26389C8.35015 2.92384 8.03938 4.65244 7.90342 6.43033C10.5644 5.52554 13.4178 5.03442 16.3861 5.03442C17.0747 5.03442 17.758 5.06083 18.4343 5.11188C18.0882 5.19285 17.7457 5.2791 17.4067 5.37416C17.359 5.38648 17.3113 5.3988 17.2654 5.41289C13.7957 6.39161 10.6191 8.06036 7.89282 10.266C8.1259 13.6035 8.98582 16.7667 10.356 19.6431C10.6527 16.772 12.173 14.2654 14.3872 12.6424C12.7451 14.4203 11.7439 16.7949 11.7439 19.4001C11.7439 20.8753 12.0653 22.2764 12.6427 23.5351C12.6709 23.5738 12.6992 23.6143 12.7274 23.653C12.7981 23.7533 12.8687 23.8519 12.9429 23.9505C12.9481 23.9188 12.9534 23.8889 12.9605 23.8572C12.9729 23.7885 12.987 23.7199 13.0029 23.653C13.1848 22.7482 13.4443 21.8716 13.7745 21.0284C13.8257 20.8964 13.8787 20.7661 13.9334 20.6376C13.9352 20.6341 13.9352 20.6306 13.937 20.6288C13.9793 20.5232 14.0253 20.4211 14.0729 20.3172C14.0765 20.3067 14.0818 20.2961 14.0871 20.2856C14.0959 20.2644 14.1065 20.2416 14.1153 20.2204C14.1559 20.1307 14.1983 20.0391 14.2424 19.9493C14.3025 19.8226 14.3643 19.6959 14.4278 19.5726C14.4596 19.5093 14.4932 19.4459 14.525 19.3843C14.555 19.328 14.585 19.2716 14.6168 19.2153C14.6486 19.1537 14.6821 19.0938 14.7157 19.034C14.7704 18.9354 14.8269 18.8368 14.8834 18.74C14.9417 18.6397 15.0017 18.5394 15.0635 18.4408C15.0971 18.3845 15.1324 18.3316 15.1659 18.2771C15.1748 18.2647 15.1818 18.2507 15.1906 18.2383C15.2507 18.1433 15.3107 18.05 15.3725 17.9585C15.4343 17.8634 15.4997 17.7701 15.565 17.6768C15.625 17.5888 15.6868 17.5025 15.7486 17.4163C15.7963 17.3494 15.844 17.2843 15.8934 17.2209C15.9111 17.1963 15.9305 17.1699 15.9499 17.147C16.0011 17.0783 16.0523 17.0114 16.1053 16.9445C16.1689 16.8618 16.2342 16.7808 16.2995 16.6999C16.6633 16.2545 17.0482 15.8303 17.4543 15.4272C17.5426 15.3392 17.6309 15.2529 17.721 15.1684C19.3419 13.6282 21.2825 12.4171 23.4331 11.6496C23.6433 11.5721 23.8552 11.5017 24.0688 11.4348C24.1288 11.4155 24.1889 11.3979 24.2489 11.3803C24.309 11.3627 24.3708 11.3451 24.4308 11.3275C24.4326 11.3275 24.4326 11.3257 24.4343 11.3257C24.4396 11.3257 24.4449 11.3222 24.4502 11.3222C24.4908 11.3116 24.5297 11.2993 24.5703 11.2887C24.5932 11.2817 24.6162 11.2764 24.6391 11.2694C24.7098 11.25 24.7822 11.2306 24.8546 11.2113C24.9676 11.1831 25.0788 11.1549 25.1918 11.1303C25.2483 11.1162 25.3048 11.1021 25.3631 11.0898C25.4673 11.0669 25.5732 11.044 25.6792 11.0247C25.7339 11.0106 25.7904 11 25.8469 10.9912C25.9635 10.9666 26.08 10.9455 26.1983 10.9261C26.2354 10.9191 26.2707 10.9138 26.3078 10.9085C27.0918 10.743 27.8775 10.6761 28.6527 10.6973H28.6562C30.9393 10.7659 33.12 11.6144 34.8381 13.0684C34.9334 13.1071 35.027 13.1476 35.1188 13.1898L35.9999 13.556C35.9028 12.2234 35.5426 10.9613 34.9705 9.82241ZM26.2265 7.40905C25.5361 7.40905 24.9746 6.85104 24.9746 6.16101C24.9746 5.47098 25.5344 4.91296 26.2265 4.91296C26.9187 4.91296 27.4785 5.47098 27.4785 6.16101C27.4785 6.85104 26.9187 7.40905 26.2265 7.40905Z" fill="url(#paint4_linear_857_962)"/>
  </g>
  <defs>
    <linearGradient id="paint0_linear_857_962" x1="28.7747" y1="5.00805" x2="36.0001" y2="5.00805" gradientUnits="userSpaceOnUse">
      <stop stop-color="#16528B"/>
      <stop offset="1" stop-color="#009FE3"/>
    </linearGradient>
    <linearGradient id="paint1_linear_857_962" x1="22.4373" y1="18.7171" x2="0.176573" y2="18.7171" gradientUnits="userSpaceOnUse">
      <stop stop-color="#16528B"/>
      <stop offset="1" stop-color="#009FE3"/>
    </linearGradient>
    <linearGradient id="paint2_linear_857_962" x1="0" y1="12.4576" x2="10.7022" y2="12.4576" gradientUnits="userSpaceOnUse">
      <stop stop-color="#16528B"/>
      <stop offset="1" stop-color="#009FE3"/>
    </linearGradient>
    <linearGradient id="paint3_linear_857_962" x1="23.8763" y1="14.9748" x2="23.8763" y2="30.2153" gradientUnits="userSpaceOnUse">
      <stop stop-color="#16528B"/>
      <stop offset="1" stop-color="#009FE3"/>
    </linearGradient>
    <linearGradient id="paint4_linear_857_962" x1="1.82926" y1="11.9752" x2="28.0382" y2="11.9752" gradientUnits="userSpaceOnUse">
      <stop stop-color="#16528B"/>
      <stop offset="1" stop-color="#009FE3"/>
    </linearGradient>
    <clipPath id="clip0_857_962">
      <rect width="36" height="32.7273" fill="white"/>
    </clipPath>
  </defs>
</svg>