<svg width="120" height="72" viewBox="0 0 120 72" fill="none" xmlns="http://www.w3.org/2000/svg">
<g id="Group 3">
<path id="Path 53" d="M33.8166 26.2199C33.7857 27.4146 33.9336 28.6073 34.2556 29.7586C34.6102 30.7432 35.0372 31.7003 35.5331 32.6223C35.7107 32.895 35.8075 33.212 35.8126 33.5369C35.8126 33.9344 35.5731 34.3324 35.0543 34.7297L32.54 36.3997C32.2366 36.6174 31.8759 36.7418 31.5024 36.7575C31.0478 36.7263 30.6211 36.528 30.3051 36.2009C29.7671 35.6252 29.2859 34.9994 28.8678 34.3322C28.4688 33.6562 28.0693 32.9003 27.6306 31.9862C24.5176 35.6436 20.6062 37.4723 15.8965 37.4723C12.5429 37.4723 9.87003 36.5177 7.91442 34.6086C5.95882 32.6994 4.96094 30.1561 4.96094 26.9753C4.96094 23.5957 6.15821 20.8522 8.59291 18.7846C11.0276 16.7171 14.2601 15.6832 18.3709 15.6832C19.7867 15.6947 21.2001 15.801 22.6015 16.0014C24.0783 16.2002 25.595 16.5182 27.1912 16.8762V13.9736C27.1912 10.9507 26.5525 8.84453 25.3155 7.61176C24.0379 6.37922 21.8831 5.78284 18.8099 5.78284C17.3575 5.78277 15.9103 5.95629 14.4994 6.29967C13.0322 6.6479 11.5918 7.09966 10.189 7.65154C9.73509 7.85384 9.26847 8.02649 8.79207 8.16837C8.58541 8.23625 8.37059 8.27638 8.15328 8.28769C7.59457 8.28769 7.3151 7.89018 7.3151 7.05515V5.10691C7.3151 4.47052 7.39495 3.99324 7.59457 3.71527C7.89574 3.35284 8.27883 3.06668 8.71245 2.88024C10.3132 2.09118 12.0009 1.49074 13.7413 1.0911C15.775 0.57123 17.868 0.317271 19.9675 0.335616C24.7178 0.335616 28.1891 1.40906 30.4242 3.55618C32.6193 5.70329 33.7368 8.96362 33.7368 13.3374V26.2199H33.8166ZM17.6128 32.2635C19.013 32.2481 20.4013 32.0064 21.7237 31.5478C23.1885 31.0429 24.4955 30.1654 25.5151 29.0022C26.1585 28.2694 26.6229 27.3981 26.8721 26.4567C27.1463 25.3242 27.2803 24.1625 27.2711 22.9975V21.3293C26.061 21.0358 24.8353 20.8101 23.5999 20.6533C22.3553 20.4963 21.1022 20.4169 19.8477 20.4158C17.1737 20.4158 15.2181 20.9326 13.901 22.0068C12.584 23.0809 11.9454 24.5912 11.9454 26.5792C11.9454 28.4479 12.4245 29.8395 13.4221 30.7939C14.3803 31.788 15.777 32.2651 17.6128 32.2651V32.2635ZM49.6613 36.5577C48.9429 36.5577 48.464 36.4384 48.1446 36.1602C47.8252 35.9216 47.546 35.3647 47.3065 34.6095L37.927 3.87437C37.7452 3.35989 37.6247 2.82591 37.5679 2.28341C37.5679 1.64702 37.8873 1.28928 38.5261 1.28928H42.4373C43.1956 1.28928 43.7149 1.40861 43.9939 1.6868C44.3133 1.92544 44.5526 2.48228 44.7924 3.23753L51.4974 29.5591L57.7233 3.23821C57.9229 2.44273 58.1622 1.92612 58.4816 1.68748C58.801 1.44883 59.3597 1.28997 60.0786 1.28997H63.2725C64.0309 1.28997 64.5501 1.40929 64.8695 1.68748C65.1889 1.92612 65.4681 2.48296 65.6278 3.23821L71.9338 29.8779L78.8362 3.23821C79.0757 2.44273 79.3549 1.92612 79.6347 1.68748C79.954 1.44883 80.4728 1.28997 81.1912 1.28997H84.9031C85.5418 1.28997 85.9009 1.60816 85.9009 2.28409C85.8916 2.49802 85.8649 2.71084 85.8211 2.92047C85.7585 3.25964 85.665 3.5924 85.5416 3.9146L75.9231 34.6497C75.6837 35.4449 75.4043 35.9618 75.0849 36.2004C74.6337 36.4881 74.1031 36.6272 73.5682 36.5979H70.1356C69.3773 36.5979 68.8581 36.4786 68.5387 36.2004C68.2193 35.9222 67.94 35.4049 67.7803 34.6095L61.5946 8.96362L55.4481 34.5697C55.2484 35.3652 55.0091 35.8818 54.6897 36.1606C54.3703 36.4395 53.8116 36.5582 53.0928 36.5582L49.6613 36.5577ZM100.947 37.6311C98.8771 37.6333 96.8142 37.3931 94.8006 36.9154C92.8051 36.4382 91.2485 35.9213 90.2109 35.3245C89.5721 34.9667 89.1334 34.569 88.9737 34.2108C88.8183 33.8598 88.7368 33.4808 88.7342 33.0971V31.0707C88.7342 30.2357 89.0536 29.8382 89.6522 29.8382C89.8966 29.839 90.1392 29.8793 90.3706 29.9575C90.6102 30.037 90.9693 30.1961 91.3685 30.355C92.7783 30.9727 94.25 31.4392 95.7588 31.7466C97.3221 32.0628 98.9131 32.2227 100.508 32.2239C103.023 32.2239 104.978 31.7866 106.335 30.9118C106.985 30.5211 107.52 29.9657 107.885 29.3022C108.249 28.6387 108.431 27.8908 108.411 27.1347C108.425 26.6228 108.337 26.1133 108.152 25.6355C107.968 25.1578 107.689 24.7213 107.334 24.3514C106.615 23.5959 105.258 22.9195 103.303 22.2831L97.5146 20.4942C94.601 19.5799 92.4458 18.228 91.129 16.4384C89.8441 14.7883 89.1425 12.7614 89.1334 10.673C89.101 9.13347 89.4724 7.61217 90.2109 6.25945C90.9239 4.98027 91.9042 3.86845 93.0855 2.99911C94.3294 2.06092 95.7366 1.35974 97.2362 0.930863C98.87 0.46237 100.564 0.235021 102.264 0.256068C103.158 0.249612 104.051 0.302763 104.938 0.415164C105.856 0.534487 106.695 0.693583 107.532 0.852451C108.331 1.05132 109.089 1.24996 109.807 1.48884C110.39 1.66831 110.951 1.90819 111.484 2.20454C111.953 2.44063 112.363 2.78067 112.681 3.19866C112.94 3.58558 113.066 4.04615 113.04 4.51075V6.37945C113.04 7.21448 112.72 7.65222 112.122 7.65222C111.802 7.65222 111.284 7.49312 110.605 7.17493C108.33 6.14111 105.776 5.6242 102.942 5.6242C100.667 5.6242 98.8713 5.98194 97.6341 6.73787C96.3969 7.4938 95.7584 8.64702 95.7584 10.2766C95.7474 10.8046 95.8484 11.3289 96.0547 11.8154C96.261 12.3018 96.568 12.7395 96.9556 13.0997C97.7541 13.8551 99.2306 14.6106 101.346 15.2866L107.013 17.0748C109.888 17.9894 111.962 19.2617 113.2 20.8917C114.418 22.4912 115.064 24.4507 115.035 26.4583C115.056 28.0553 114.701 29.635 113.998 31.0705C113.29 32.4314 112.296 33.6247 111.084 34.5695C109.767 35.5913 108.262 36.3478 106.654 36.7968C104.805 37.3632 102.881 37.6448 100.947 37.6318L100.947 37.6311Z" fill="white"/>
<path id="Path 54" d="M108.491 56.9543C95.3598 66.6162 76.2824 71.7453 59.879 71.7453C36.8901 71.7462 16.1762 63.277 0.53161 49.2018C-0.705587 48.0881 0.411837 46.5776 1.88858 47.4517C18.8108 57.233 39.6843 63.1568 61.2761 63.1568C75.8437 63.1568 91.8478 60.134 106.575 53.9322C108.77 52.9381 110.646 55.364 108.491 56.955L108.491 56.9543Z" fill="#FF9900"/>
<path id="Path 55" d="M113.958 50.7523C112.282 48.6051 102.863 49.7186 98.5924 50.2354C97.3148 50.3945 97.1156 49.2809 98.273 48.4463C105.776 43.1979 118.109 44.7087 119.546 46.4583C120.983 48.2474 119.147 60.5335 112.122 66.4182C111.045 67.3328 110.007 66.8555 110.486 65.6627C112.082 61.7263 115.635 52.8596 113.958 50.7523Z" fill="#FF9900"/>
</g>
</svg>
