<svg xmlns="http://www.w3.org/2000/svg" width="37" height="34" viewBox="0 0 37 34" fill="none">
  <g clip-path="url(#clip0_285_1110)">
    <path d="M12.3424 0.0343928H23.2781L11.9257 32.8098C11.8677 32.9772 11.7832 33.1348 11.6753 33.2768C11.5677 33.419 11.4379 33.5436 11.2905 33.6466C11.1431 33.7497 10.9805 33.8297 10.8077 33.8837C10.6349 33.9377 10.4548 33.9656 10.2737 33.9656H1.76295C1.48668 33.9656 1.21411 33.9017 0.968335 33.7784C0.722297 33.6555 0.509913 33.4772 0.348811 33.2584C0.187603 33.0395 0.0821423 32.7864 0.0411276 32.5201C1.07773e-05 32.2537 0.0249581 31.9815 0.113197 31.7264L10.6899 1.18929C10.7477 1.02193 10.8322 0.864463 10.9403 0.722294C11.048 0.580125 11.1782 0.455502 11.3251 0.352474C11.4725 0.249446 11.6351 0.169364 11.8079 0.115375C11.9807 0.061387 12.1609 0.033493 12.342 0.033493V0.0339429L12.3424 0.0343928Z" fill="url(#paint0_linear_285_1110)"/>
    <path d="M32.5016 33.9656H22.6821C22.5726 33.9656 22.4631 33.9557 22.355 33.9355C22.2474 33.9157 22.1416 33.886 22.0395 33.8468C21.9374 33.8077 21.8394 33.7591 21.7466 33.7024C21.6538 33.6454 21.5668 33.58 21.4865 33.5072L10.3434 23.3727C10.2255 23.2655 10.1434 23.1263 10.1077 22.9731C10.0721 22.82 10.0846 22.6599 10.1437 22.5138C10.2028 22.3677 10.3057 22.2423 10.439 22.1539C10.5725 22.0657 10.73 22.0184 10.8913 22.0184H28.2324L32.5007 33.9661L32.5016 33.9656Z" fill="#0078D4"/>
    <path d="M23.3174 0.0343991L15.6622 22.0207L28.1701 22.018L32.4605 33.9656H22.678C22.5768 33.9647 22.4756 33.9557 22.3758 33.9382C22.276 33.9206 22.1781 33.895 22.0829 33.8608C21.8921 33.7931 21.7146 33.694 21.5581 33.5679L14.036 26.7312L11.9303 32.7788C11.8758 32.9299 11.801 33.0735 11.7076 33.2053C11.5206 33.4705 11.2648 33.6827 10.9661 33.8203C10.8175 33.8888 10.6601 33.9377 10.4982 33.9656H1.76799C1.48895 33.9665 1.21361 33.9017 0.965522 33.7767C0.717398 33.6517 0.503815 33.4704 0.34283 33.2481C0.181845 33.0257 0.0781889 32.7689 0.040625 32.4994C0.00319709 32.2297 0.0328251 31.9552 0.127017 31.699L10.6866 1.21224C10.7416 1.04173 10.8243 0.881116 10.9315 0.736247C11.0382 0.591379 11.1685 0.463606 11.3163 0.358329C11.4642 0.253052 11.6286 0.17117 11.8028 0.116281C11.977 0.0613933 12.1595 0.0334993 12.3429 0.0343991H23.3178H23.3174Z" fill="url(#paint1_linear_285_1110)"/>
    <path d="M36.8868 31.7264C36.9751 31.9817 37 32.2537 36.9594 32.5201C36.9183 32.7864 36.813 33.0394 36.6522 33.2584C36.491 33.4771 36.2787 33.6553 36.0328 33.7783C35.7869 33.9013 35.5145 33.9655 35.238 33.9656H23.0499C23.3262 33.9656 23.5987 33.9013 23.845 33.7784C24.0907 33.6556 24.3033 33.477 24.4645 33.2584C24.6257 33.0397 24.7311 32.7864 24.7722 32.5201C24.8133 32.2537 24.7883 31.9815 24.7001 31.7264L14.1229 1.18839C14.0065 0.851994 13.7846 0.559633 13.4886 0.352475C13.3417 0.249447 13.1791 0.169814 13.0068 0.115826C12.8344 0.0618374 12.6543 0.0343933 12.4736 0.0343933H24.6613C24.8424 0.0343933 25.0221 0.0618374 25.1949 0.115826C25.3672 0.169814 25.5298 0.249897 25.6772 0.352475C25.8241 0.455502 25.9539 0.580125 26.0616 0.721845C26.1692 0.863564 26.2533 1.02103 26.3115 1.18839L36.8887 31.7264H36.8868Z" fill="url(#paint2_linear_285_1110)"/>
  </g>
  <defs>
    <linearGradient id="paint0_linear_285_1110" x1="16.3335" y1="2.54935" x2="5.49791" y2="35.4182" gradientUnits="userSpaceOnUse">
      <stop stop-color="#114A8B"/>
      <stop offset="1" stop-color="#0669BC"/>
    </linearGradient>
    <linearGradient id="paint1_linear_285_1110" x1="19.8769" y1="17.7831" x2="17.2629" y2="18.6935" gradientUnits="userSpaceOnUse">
      <stop stop-opacity="0.3"/>
      <stop offset="0.1" stop-opacity="0.2"/>
      <stop offset="0.3" stop-opacity="0.1"/>
      <stop offset="0.6" stop-opacity="0.1"/>
      <stop offset="1" stop-opacity="0"/>
    </linearGradient>
    <linearGradient id="paint2_linear_285_1110" x1="18.4263" y1="1.59556" x2="30.3319" y2="34.1647" gradientUnits="userSpaceOnUse">
      <stop stop-color="#3CCBF4"/>
      <stop offset="1" stop-color="#2892DF"/>
    </linearGradient>
    <clipPath id="clip0_285_1110">
      <rect width="37" height="34" fill="white"/>
    </clipPath>
  </defs>
</svg>