<svg xmlns="http://www.w3.org/2000/svg" width="44" height="48" viewBox="0 0 44 48" fill="none">
  <path d="M16.896 12.6126C18.5483 11.4812 20.6772 11.9263 20.3203 12.2664C19.6408 12.9162 20.5453 12.7237 20.6431 13.9228C20.715 14.8054 20.4272 15.2924 20.1809 15.5694C19.6658 15.6371 19.0385 15.7641 18.2839 16.0099C17.8377 16.1552 17.4483 16.3173 17.1089 16.4801C17.0195 16.4208 16.9218 16.35 16.8059 16.2496C15.6392 15.2361 15.6778 13.4465 16.896 12.6126ZM26.7652 19.6028C27.0644 19.3699 28.4273 18.9302 29.6887 18.7795C30.3509 18.7004 31.2948 18.6562 31.4963 18.7696C31.8963 18.9918 31.8963 19.6773 31.6229 20.3111C31.2244 21.2326 30.66 22.2491 30.0221 22.3328C28.9811 22.4705 27.9955 21.9052 26.8705 21.0614C26.469 20.7585 26.2227 20.0243 26.7652 19.6028ZM28.6645 10.6373C30.2024 11.3564 30.0009 12.7237 30.0433 13.5264C30.0554 13.7569 30.0508 13.9122 30.0312 14.0202C29.8175 13.9038 29.4819 13.8193 28.9486 13.8429C28.7925 13.8498 28.6402 13.868 28.494 13.8916C27.9266 13.5865 27.5879 12.9885 27.2773 12.3531C27.2493 12.2945 27.2273 12.2428 27.2069 12.1911C27.1985 12.1682 27.1879 12.1424 27.1796 12.1218C27.1758 12.1104 27.1728 12.1005 27.169 12.0899C26.9985 11.5474 27.1129 11.4385 27.1849 11.2712C27.2591 11.1007 27.5364 10.9592 27.1265 10.8169C27.0917 10.804 27.047 10.7956 26.9978 10.7872C27.269 10.4494 28.0834 10.3665 28.6645 10.6373ZM20.2817 26.9848C18.6249 25.9158 16.9104 24.3841 16.1612 23.5365C16.0354 23.4414 16.0559 23.0191 16.0559 23.0191C16.7324 23.5479 19.5393 25.5612 22.506 26.4803C23.5522 26.8052 25.1591 26.9277 26.5523 26.1341C27.6175 25.5277 28.8986 24.4709 29.6637 23.382L29.8039 23.6263C29.7986 23.7884 29.4463 24.5766 29.2683 24.8939C29.5917 25.0811 29.8334 25.1313 30.1933 25.231L32.6509 24.846C33.5327 23.4155 34.1646 21.1078 33.4911 18.9111C33.1062 17.6511 31.1009 15.1425 30.9569 15.0048C30.4524 14.5186 31.0418 12.6392 30.0425 10.5902C28.9864 8.42242 26.2364 6.16186 25.0424 5.17804C25.3947 5.43674 27.5622 6.31327 28.572 7.53828C28.6667 7.41122 28.7061 6.75382 28.7932 6.58795C27.9266 5.44739 27.8584 3.41585 27.8584 2.87334C27.8584 1.87811 27.3538 0.749729 27.3538 0.749729C27.3538 0.749729 28.222 1.43985 28.4463 2.62758C28.7114 4.03596 29.2766 5.1438 30.0236 6.0812C31.4372 7.85024 32.7138 8.75797 33.36 8.10362C34.132 7.31839 32.5774 3.80542 30.5895 1.84463C28.2705 -0.441046 27.6629 -0.146586 26.303 0.341898C25.2174 0.729946 24.6303 3.82672 21.8007 3.76585C21.3211 3.71031 20.0862 3.67911 19.4764 3.68444C19.7946 3.23856 20.0665 2.89312 20.0665 2.89312C20.0665 2.89312 19.1173 3.27584 18.3089 3.76281L18.2468 3.66846C18.5195 3.09019 18.8135 2.72573 18.8135 2.72573C18.8135 2.72573 18.0551 3.18302 17.3627 3.73085C17.4892 3.04149 17.965 2.60475 17.965 2.60475C17.965 2.60475 17.0066 2.77899 15.7854 4.12651C14.3983 4.50695 14.0642 4.75803 12.9588 5.24956C11.1618 4.85619 10.3126 4.22009 9.50572 3.05062C8.8898 2.15735 7.79584 2.02116 6.67536 2.48301C5.04502 3.16171 2.98059 4.08922 2.98059 4.08922C2.98059 4.08922 3.65181 4.06335 4.35334 4.09455C3.39423 4.45977 2.47073 4.96195 2.47073 4.96195C2.47073 4.96195 2.92074 4.94673 3.4753 4.95586C3.09195 5.27543 2.88059 5.42837 2.51618 5.67033C1.63814 6.31023 0.926758 7.04904 0.926758 7.04904C0.926758 7.04904 1.52298 6.77664 2.05708 6.62371C1.68359 7.48502 0.94191 8.11807 1.07828 9.17265C1.20858 10.1359 2.38588 12.118 3.90485 13.3347C4.03516 13.4412 6.11096 15.3677 7.67463 14.5764C9.23905 13.7859 9.85497 13.082 10.1126 12.0008C10.4148 10.7598 10.2421 9.8232 9.59739 7.13045C9.38527 6.24175 8.82995 4.41184 8.56252 3.53683L8.62237 3.49346C9.1345 4.57771 10.4436 7.43557 10.9709 9.3545C11.7944 12.3478 11.5368 13.8665 11.1603 14.4227C10.0247 16.102 7.11249 16.3234 5.78746 15.3928C5.58519 18.6159 6.30187 20.0342 6.5443 20.7494C6.42308 21.5712 6.95416 23.0967 6.95416 23.0967C6.95416 23.0967 7.01401 22.4028 7.25643 22.0376C7.32159 22.8532 7.73069 23.8218 7.73069 23.8218C7.73069 23.8218 7.70569 23.2238 7.89205 22.7072C8.15418 23.153 8.34661 23.2588 8.5951 23.5943C8.84283 24.4663 9.34057 25.1024 9.34057 25.1024C9.34057 25.1024 9.25951 24.6352 9.3042 24.1483C10.5186 25.32 10.7277 27.0297 10.8489 28.3422C11.1891 31.9549 5.17836 34.8257 4.01394 37.0847C3.13059 38.4223 2.60255 40.5399 4.09728 41.7877C7.71175 44.8015 6.32384 45.6317 8.13297 46.9563C10.6141 48.7733 13.7202 47.9592 14.7778 46.4816C16.2498 44.4219 15.871 42.4793 15.324 40.6631C14.8975 39.2418 13.7361 36.8815 12.299 35.9685C10.8315 35.0349 9.40421 34.8591 8.19509 34.9854L8.30721 34.8569C10.0466 34.5099 11.8641 34.7009 13.18 35.5515C14.6733 36.5156 16.0392 38.1697 16.7544 40.7042C17.5642 40.5886 17.6794 40.5353 18.4203 40.4303L16.7506 27.3736L20.2817 26.9848ZM21.2461 43.3513L21.0529 41.5412L24.8083 35.7882L29.0713 37.0398L32.738 30.8896L37.1336 33.8008L40.4723 26.768L41.6594 39.5758L21.2461 43.3513ZM41.7056 24.1422L28.2857 26.5853C27.9538 27.0168 27.1311 27.7716 26.7364 27.9686C25.0417 28.8254 23.8954 28.5781 22.9068 28.3194C22.2704 28.1573 21.9014 28.066 21.3726 27.8271L18.0968 28.2791L20.0847 44.9393L43.0731 40.7772L41.7056 24.1422Z" fill="white"/>
</svg>