<svg width="38" height="38" viewBox="0 0 38 38" fill="none" xmlns="http://www.w3.org/2000/svg">
<mask id="mask0_286_4930" style="mask-type:luminance" maskUnits="userSpaceOnUse" x="0" y="0" width="38" height="38">
<path d="M37.5581 15.5455H19.4419V22.8864H29.8698C28.8977 27.55 24.8326 30.2273 19.4419 30.2273C13.0791 30.2273 7.95349 25.2182 7.95349 19C7.95349 12.7818 13.0791 7.77273 19.4419 7.77273C22.1814 7.77273 24.6558 8.72273 26.6 10.2773L32.2558 4.75C28.8093 1.81364 24.3907 0 19.4419 0C8.66047 0 0 8.46364 0 19C0 29.5364 8.66047 38 19.4419 38C29.1628 38 38 31.0909 38 19C38 17.8773 37.8233 16.6682 37.5581 15.5455Z" fill="white"/>
</mask>
<g mask="url(#mask0_286_4930)">
<path d="M-1.76758 30.2272V7.77267L13.2557 18.9999L-1.76758 30.2272Z" fill="#FBBC05"/>
</g>
<mask id="mask1_286_4930" style="mask-type:luminance" maskUnits="userSpaceOnUse" x="0" y="0" width="38" height="38">
<path d="M37.5581 15.5455H19.4419V22.8864H29.8698C28.8977 27.55 24.8326 30.2273 19.4419 30.2273C13.0791 30.2273 7.95349 25.2182 7.95349 19C7.95349 12.7818 13.0791 7.77273 19.4419 7.77273C22.1814 7.77273 24.6558 8.72273 26.6 10.2773L32.2558 4.75C28.8093 1.81364 24.3907 0 19.4419 0C8.66047 0 0 8.46364 0 19C0 29.5364 8.66047 38 19.4419 38C29.1628 38 38 31.0909 38 19C38 17.8773 37.8233 16.6682 37.5581 15.5455Z" fill="white"/>
</mask>
<g mask="url(#mask1_286_4930)">
<path d="M-1.76758 7.77268L13.2557 18.9999L19.4417 13.7318L40.651 10.3636V-1.72733H-1.76758V7.77268Z" fill="#EA4335"/>
</g>
<mask id="mask2_286_4930" style="mask-type:luminance" maskUnits="userSpaceOnUse" x="0" y="0" width="38" height="38">
<path d="M37.5581 15.5455H19.4419V22.8864H29.8698C28.8977 27.55 24.8326 30.2273 19.4419 30.2273C13.0791 30.2273 7.95349 25.2182 7.95349 19C7.95349 12.7818 13.0791 7.77273 19.4419 7.77273C22.1814 7.77273 24.6558 8.72273 26.6 10.2773L32.2558 4.75C28.8093 1.81364 24.3907 0 19.4419 0C8.66047 0 0 8.46364 0 19C0 29.5364 8.66047 38 19.4419 38C29.1628 38 38 31.0909 38 19C38 17.8773 37.8233 16.6682 37.5581 15.5455Z" fill="white"/>
</mask>
<g mask="url(#mask2_286_4930)">
<path d="M-1.76758 30.2272L24.744 10.3636L31.7254 11.2272L40.651 -1.72733V39.7272H-1.76758V30.2272Z" fill="#34A853"/>
</g>
<mask id="mask3_286_4930" style="mask-type:luminance" maskUnits="userSpaceOnUse" x="0" y="0" width="38" height="38">
<path d="M37.5581 15.5455H19.4419V22.8864H29.8698C28.8977 27.55 24.8326 30.2273 19.4419 30.2273C13.0791 30.2273 7.95349 25.2182 7.95349 19C7.95349 12.7818 13.0791 7.77273 19.4419 7.77273C22.1814 7.77273 24.6558 8.72273 26.6 10.2773L32.2558 4.75C28.8093 1.81364 24.3907 0 19.4419 0C8.66047 0 0 8.46364 0 19C0 29.5364 8.66047 38 19.4419 38C29.1628 38 38 31.0909 38 19C38 17.8773 37.8233 16.6682 37.5581 15.5455Z" fill="white"/>
</mask>
<g mask="url(#mask3_286_4930)">
<path d="M40.6512 39.7272L13.2558 18.9999L9.72095 16.409L40.6512 7.77267V39.7272Z" fill="#4285F4"/>
</g>
</svg>
