<svg xmlns="http://www.w3.org/2000/svg" width="48" height="48" viewBox="0 0 48 48" fill="none">
  <path d="M7.57123 19.9591C7.42639 19.9578 7.28418 19.9187 7.15837 19.8461L3.15625 17.5034C2.78659 17.2959 2.61349 16.8525 2.74339 16.445C2.90263 15.9984 3.38815 15.7665 3.82945 15.926C3.87787 15.9416 3.92377 15.9641 3.96583 15.9931L7.97196 18.3358C8.36503 18.5675 8.51893 19.0646 8.32698 19.4822C8.18317 19.772 7.89151 19.956 7.57123 19.9591ZM14.489 12.9306C14.1881 12.9327 13.9088 12.7737 13.7539 12.5124L11.4452 8.45848C11.225 8.09302 11.2926 7.62046 11.6064 7.33318C11.7752 7.18048 11.9987 7.10494 12.2245 7.12378C12.45 7.1428 12.6581 7.25482 12.7999 7.4335C12.8335 7.47286 12.8638 7.51492 12.8908 7.55914L15.1994 11.5919C15.4367 11.9833 15.34 12.4932 14.9764 12.7676C14.834 12.8707 14.664 12.9276 14.489 12.9306ZM23.092 9.44998V4.84804C23.0839 4.3693 23.4463 3.96736 23.9178 3.93184C24.1453 3.92182 24.367 4.00462 24.5333 4.16212C24.6997 4.3195 24.7966 4.53814 24.8016 4.76866C24.8016 4.76866 24.8016 4.79362 24.8016 4.80628V9.5002C24.8016 9.97606 24.4208 10.3619 23.9509 10.3619H23.9135C23.4455 10.3245 23.0859 9.92584 23.092 9.44998ZM33.3922 12.9306C33.2188 12.9316 33.0502 12.8776 32.9087 12.776C32.5452 12.4972 32.4519 11.9833 32.6939 11.5919L35.0029 7.5424C35.238 7.13224 35.756 6.99046 36.1633 7.22446C36.2063 7.2523 36.2478 7.28302 36.287 7.31644C36.599 7.60444 36.6667 8.07592 36.4484 8.44174L34.1353 12.4957C33.9832 12.766 33.6991 12.9322 33.3922 12.9306ZM40.3097 19.9591C39.9958 19.9586 39.7068 19.7835 39.5582 19.503C39.3553 19.0768 39.5167 18.5644 39.9259 18.3358L43.8989 16.014C44.2555 15.791 44.719 15.8597 44.9971 16.1771C45.1489 16.3471 45.225 16.5729 45.2077 16.8013C45.1908 17.03 45.0817 17.2413 44.9065 17.3861C44.8688 17.4215 44.8274 17.4522 44.7827 17.4782L40.7351 19.8461C40.6056 19.9209 40.4588 19.9599 40.3097 19.9591ZM13.1799 39.5547C9.16243 35.5107 7.69483 29.541 9.37111 24.061C11.0472 18.581 15.5897 14.4975 21.1605 13.4628C26.7314 12.4282 32.4086 14.6136 35.8948 19.1348C36.155 19.4695 36.4028 19.8209 36.6299 20.1723L35.2174 21.1179C35.0153 20.8041 34.8047 20.4945 34.5611 20.1974C31.4717 16.154 26.4162 14.1903 21.45 15.1044C16.4838 16.0186 12.4338 19.6587 10.9465 24.5446C9.45907 29.4303 10.7819 34.749 14.3776 38.337L13.1799 39.5547ZM34.7877 44.0689H11.3708C8.76181 44.0501 6.26707 42.981 4.43659 41.0979C2.60599 39.2147 1.58971 36.671 1.61143 34.0281H3.30499C3.28303 36.2169 4.12147 38.3241 5.63557 39.8847C7.14949 41.446 9.21463 42.3329 11.375 42.3494H34.7796C38.7047 42.3698 42.272 40.0424 43.8771 36.4135C45.4816 32.7851 44.8211 28.5388 42.193 25.5858L43.4321 24.4396C46.4865 27.9033 47.2469 32.8615 45.3737 37.1006C43.5008 41.3394 39.344 44.0688 34.7593 44.0688L34.7877 44.0689ZM3.30499 34.049H1.61179C1.63447 29.2117 5.09173 25.0933 9.80161 24.2929L10.0823 25.9667C6.18223 26.6307 3.32077 30.0432 3.30499 34.049ZM24.8473 32.2169H23.1497C23.1839 27.3519 26.1676 23.009 30.6594 21.2867C35.1512 19.5642 40.2263 20.8171 43.4321 24.4397L42.193 25.586C39.4679 22.4556 35.1143 21.3595 31.2596 22.8333C27.404 24.3068 24.8512 28.0433 24.8473 32.2169Z" fill="url(#paint0_linear_273_1196)"/>
  <defs>
    <linearGradient id="paint0_linear_273_1196" x1="35.4445" y1="6.41442" x2="16.5532" y2="48.5495" gradientUnits="userSpaceOnUse">
      <stop stop-color="#50FFD2"/>
      <stop offset="1" stop-color="#0064FF"/>
    </linearGradient>
  </defs>
</svg>