<svg xmlns="http://www.w3.org/2000/svg" width="38" height="38" viewBox="0 0 38 38" fill="none">
  <path d="M34.5473 4.07066H18.2086C18.2086 6.02677 18.9857 7.90276 20.3689 9.28594C21.752 10.6691 23.628 11.4462 25.5841 11.4462H28.5939V14.3522C28.5966 18.4218 31.895 21.7204 35.9646 21.723V5.48804C35.9646 4.70546 35.3302 4.07066 34.5473 4.07066Z" fill="#2684FF"/>
  <path d="M26.4629 12.2116H10.1244C10.1269 16.2813 13.4253 19.5798 17.4951 19.5825H20.5049V22.4978C20.5101 26.5674 23.8107 29.8637 27.8804 29.8637V13.6292C27.8804 12.8464 27.2457 12.2116 26.4629 12.2116Z" fill="url(#paint0_linear_329_3234)"/>
  <path d="M18.3739 20.3479H2.03528C2.03528 24.4213 5.33753 27.7234 9.4108 27.7234H12.43V30.6293C12.4327 34.6952 15.7253 37.9923 19.7914 38V21.7654C19.7914 20.9826 19.1568 20.3479 18.3739 20.3479Z" fill="url(#paint1_linear_329_3234)"/>
  <defs>
    <linearGradient id="paint0_linear_329_3234" x1="4454.4" y1="20.3385" x2="2691.79" y2="2080.2" gradientUnits="userSpaceOnUse">
      <stop offset="0.18" stop-color="#0052CC"/>
      <stop offset="1" stop-color="#2684FF"/>
    </linearGradient>
    <linearGradient id="paint1_linear_329_3234" x1="4565.76" y1="43.3151" x2="2526.87" y2="2289.98" gradientUnits="userSpaceOnUse">
      <stop offset="0.18" stop-color="#0052CC"/>
      <stop offset="1" stop-color="#2684FF"/>
    </linearGradient>
  </defs>
</svg>