<svg xmlns="http://www.w3.org/2000/svg" width="48" height="48" viewBox="0 0 48 48" fill="none">
  <path d="M23.8495 0.131073L25.1304 2.53689C25.4184 2.98086 25.7304 3.37383 26.0979 3.7398C27.1752 4.80371 28.1794 5.93922 29.1037 7.13855C31.274 9.98834 32.7379 13.1531 33.7833 16.5758C34.4103 18.6667 34.7507 20.8115 34.7762 22.9804C34.8812 29.4644 32.6584 35.032 28.1767 39.6591C27.4477 40.3929 26.6602 41.0661 25.8219 41.672C25.3779 41.672 25.1679 41.3315 24.985 41.018C24.6517 40.4367 24.4299 39.7983 24.331 39.1357C24.1735 38.3512 24.07 37.5668 24.121 36.7568V36.3909C24.085 36.3129 23.6936 0.315559 23.8495 0.131073Z" fill="#599636"/>
  <path d="M23.8498 0.0516007C23.7973 -0.0533915 23.7448 0.0261026 23.6923 0.0770988C23.7178 0.60206 23.5348 1.07002 23.2483 1.51699C22.9334 1.96096 22.5164 2.30143 22.0979 2.66741C19.7731 4.68026 17.9432 7.11157 16.4778 9.83087C14.528 13.4906 13.5231 17.4128 13.2381 21.542C13.1076 23.0314 13.709 28.287 14.1785 29.8034C15.4594 33.8291 17.7602 37.2023 20.7405 40.1301C21.4725 40.8351 22.2554 41.489 23.0654 42.1175C23.3008 42.1175 23.3263 41.9075 23.3803 41.7515C23.4836 41.4177 23.5623 41.0768 23.6158 40.7316L24.1408 36.8109L23.8498 0.0516007Z" fill="#6CAC48"/>
  <path d="M25.1308 43.2649C25.1833 42.6649 25.4713 42.1669 25.7847 41.6705C25.4698 41.54 25.2358 41.2805 25.0528 40.991C24.895 40.7169 24.7644 40.4281 24.6628 40.1286C24.2968 39.0307 24.2188 37.8788 24.1139 36.7568V36.0774C23.9834 36.1824 23.9564 37.0703 23.9564 37.2023C23.88 38.3881 23.7227 39.5673 23.4854 40.7315C23.4074 41.2025 23.3549 41.672 23.0654 42.0904C23.0654 42.1429 23.0654 42.1954 23.0909 42.2734C23.5619 43.6593 23.6909 45.0707 23.7704 46.5091V47.0341C23.7704 47.661 23.7449 47.529 24.2653 47.739C24.4753 47.817 24.7093 47.844 24.9193 48C25.0768 48 25.1023 47.8695 25.1023 47.7645L25.0243 46.9021V44.4963C24.9988 44.0763 25.0768 43.6593 25.1293 43.2664L25.1308 43.2649Z" fill="#C2BFBF"/>
</svg>