<svg xmlns="http://www.w3.org/2000/svg" width="40" height="34" viewBox="0 0 40 34" fill="none">
  <path d="M38.2799 26.2171C36.163 27.3206 25.1964 31.8296 22.8617 33.0466C20.527 34.2641 19.2299 34.2522 17.3856 33.3705C15.5413 32.4888 3.87095 27.7749 1.76872 26.77C0.71796 26.2677 0.165527 25.844 0.165527 25.4436V21.4339C0.165527 21.4339 15.3587 18.1263 17.8117 17.2465C20.2644 16.3664 21.1153 16.3347 23.2026 17.0993C25.2901 17.8639 37.7711 20.1159 39.8341 20.8714L39.8332 24.8243C39.8334 25.2207 39.3575 25.6556 38.2799 26.2171Z" fill="#A41E11"/>
  <path d="M38.2799 22.2062C36.163 23.3092 25.1964 27.8187 22.8617 29.0357C20.527 30.2532 19.2299 30.2413 17.3856 29.3596C15.5411 28.4784 3.87097 23.7635 1.76874 22.7591C-0.333493 21.7543 -0.377568 21.0626 1.68758 20.2541C3.7525 19.4452 15.3587 14.8917 17.8119 14.0116C20.2646 13.132 21.1155 13.0998 23.2028 13.8647C25.2904 14.6293 36.1914 18.9683 38.2542 19.7239C40.3175 20.4801 40.3968 21.1027 38.2799 22.2062Z" fill="#D82C20"/>
  <path d="M38.2799 19.6784C36.163 20.7819 25.1964 25.2909 22.8617 26.5084C20.527 27.7254 19.2299 27.7135 17.3856 26.8318C15.5411 25.9506 3.87095 21.2361 1.76872 20.2313C0.71796 19.729 0.165527 19.3058 0.165527 18.9054V14.8952C0.165527 14.8952 15.3587 11.5878 17.8117 10.7077C20.2644 9.8279 21.1153 9.79595 23.2026 10.5606C25.2901 11.3252 37.7711 13.5767 39.8341 14.3325L39.8332 18.2858C39.8334 18.682 39.3575 19.1169 38.2799 19.6784Z" fill="#A41E11"/>
  <path d="M38.2799 15.6674C36.163 16.7709 25.1964 21.2799 22.8617 22.4974C20.527 23.7144 19.2299 23.7025 17.3856 22.8208C15.5411 21.9396 3.87097 17.2249 1.76874 16.2203C-0.333493 15.2157 -0.377568 14.5241 1.68758 13.7151C3.7525 12.9067 15.3587 8.35289 17.8119 7.47306C20.2646 6.59322 21.1155 6.56127 23.2028 7.32591C25.2904 8.09055 36.1914 12.4293 38.2542 13.1851C40.3175 13.9411 40.3968 14.564 38.2799 15.6674Z" fill="#D82C20"/>
  <path d="M38.2799 12.8972C36.163 14.0006 25.1964 18.5099 22.8617 19.7274C20.527 20.9444 19.2299 20.9325 17.3856 20.0508C15.5411 19.1696 3.87095 14.4549 1.76872 13.4503C0.71796 12.948 0.165527 12.5245 0.165527 12.1244V8.11415C0.165527 8.11415 15.3587 4.80678 17.8117 3.92695C20.2644 3.04688 21.1153 3.01517 23.2026 3.7798C25.2901 4.54444 37.7711 6.79591 39.8341 7.55169L39.8332 11.5048C39.8334 11.9007 39.3575 12.3356 38.2799 12.8972Z" fill="#A41E11"/>
  <path d="M38.2799 8.88627C36.163 9.98974 25.1964 14.499 22.8617 15.7162C20.527 16.9333 19.2299 16.9214 17.3856 16.0399C15.5413 15.1584 3.87097 10.444 1.76874 9.43941C-0.333493 8.43482 -0.377568 7.74293 1.68758 6.93422C3.7525 6.12551 15.3587 1.57219 17.8119 0.692126C20.2646 -0.187942 21.1155 -0.219654 23.2028 0.545217C25.2904 1.30985 36.1914 5.64863 38.2542 6.40441C40.3175 7.15995 40.3968 7.78304 38.2799 8.88627Z" fill="#D82C20"/>
  <path d="M20.9909 7.23288L19.748 5.16679L15.7791 4.81001L18.7406 3.74199L17.8522 2.10265L20.6248 3.18699L23.2389 2.33117L22.5323 4.02648L25.1977 5.02455L21.7605 5.38133L20.9909 7.23288ZM23.563 9.93558L20.7857 14.0071L14.3706 11.3464L23.563 9.93558Z" fill="white"/>
  <path d="M11.8919 9.86269C14.6053 9.86269 16.805 9.01002 16.805 7.95821C16.805 6.90639 14.6053 6.05373 11.8919 6.05373C9.17844 6.05373 6.97876 6.90639 6.97876 7.95821C6.97876 9.01002 9.17844 9.86269 11.8919 9.86269Z" fill="white"/>
  <path d="M29.2647 9.82841L29.26 5.53067L34.7004 7.6807L29.2647 9.82841Z" fill="#7A0C00"/>
  <path d="M29.2647 9.82841L28.6747 10.0593L23.2413 7.91157L29.26 5.53067L29.2647 9.82841Z" fill="#AD2115"/>
</svg>