<svg width="144" height="48" viewBox="0 0 144 48" fill="none" xmlns="http://www.w3.org/2000/svg">
<g clip-path="url(#clip0_329_3321)">
<g clip-path="url(#clip1_329_3321)">
<path fill-rule="evenodd" clip-rule="evenodd" d="M116.552 21.3067C117.899 22.2296 118.935 23.5386 119.537 25.0547C120.13 26.5803 120.262 28.2377 119.914 29.8291C119.556 31.4206 118.737 32.8803 117.55 34.0009C117.409 34.1327 117.249 34.2457 117.07 34.3211C116.9 34.3964 116.703 34.4435 116.514 34.4529C116.326 34.4623 116.128 34.4435 115.94 34.387C115.761 34.3305 115.582 34.2363 115.431 34.1233C114.932 33.7466 114.377 33.4547 113.783 33.2664C113.181 33.0686 112.559 32.965 111.938 32.965C111.316 32.965 110.695 33.0686 110.101 33.2664C109.508 33.4547 108.943 33.7466 108.444 34.1233C108.293 34.2363 108.124 34.3305 107.935 34.387C107.757 34.4435 107.559 34.4717 107.37 34.4623C107.182 34.4435 106.994 34.4058 106.815 34.3305C106.636 34.2552 106.476 34.1422 106.344 34.0103C105.148 32.8897 104.319 31.43 103.961 29.8197C103.613 28.2188 103.745 26.552 104.357 25.0265C104.969 23.5009 106.014 22.1919 107.38 21.2691C108.736 20.3556 110.346 19.8659 111.985 19.8659C113.623 19.8753 115.205 20.3839 116.552 21.3067ZM113.52 31.8632C114.019 31.6655 114.471 31.3641 114.857 30.9874C115.234 30.6013 115.535 30.1493 115.742 29.6502C115.94 29.1417 116.034 28.6049 116.015 28.0682C116.015 26.9852 115.591 25.9493 114.829 25.1865C114.057 24.4144 113.021 23.9906 111.938 23.9906C110.855 23.9906 109.819 24.4144 109.056 25.1865C108.284 25.9493 107.86 26.9852 107.86 28.0682C107.841 28.6049 107.935 29.1417 108.143 29.6502C108.34 30.1493 108.642 30.6013 109.018 30.9874C109.404 31.3641 109.857 31.6655 110.356 31.8632C110.864 32.061 111.401 32.1646 111.938 32.1457C112.474 32.1646 113.011 32.061 113.52 31.8632Z" fill="#62D84E"/>
<path fill-rule="evenodd" clip-rule="evenodd" d="M35.1416 20.0166C35.2295 20.0229 35.3206 20.0291 35.4147 20.0354C35.5089 20.0417 35.5999 20.0511 35.6878 20.0637C35.782 20.0762 35.873 20.0919 35.9609 20.1108V23.6987C35.8416 23.6547 35.7192 23.617 35.5937 23.5856C35.4744 23.5543 35.352 23.5291 35.2264 23.5103C35.1008 23.4915 34.9721 23.4789 34.8403 23.4726C34.7147 23.4664 34.5892 23.4664 34.4636 23.4726C34.134 23.4821 33.8044 23.5291 33.4843 23.6139C33.1641 23.6892 32.8627 23.8117 32.5708 23.9623C32.2695 24.113 31.9964 24.2919 31.7421 24.4991C31.4878 24.7063 31.2618 24.9511 31.0641 25.2054V34.1704H27.3161V20.1578H30.9228V21.4291C31.1928 21.2031 31.4847 21.0022 31.7986 20.8265C32.1062 20.6444 32.4295 20.4937 32.7686 20.3744C33.1013 20.2552 33.4434 20.1641 33.795 20.1013C34.1529 20.0386 34.5076 20.0072 34.8591 20.0072C34.9533 20.0072 35.0475 20.0103 35.1416 20.0166ZM2.22911 29.8951C2.49279 30.1148 2.7753 30.3126 3.07664 30.4883C3.37799 30.6641 3.69189 30.8085 4.01835 30.9215C4.3448 31.0408 4.67754 31.1318 5.01655 31.1946C5.36184 31.2511 5.70713 31.2794 6.05243 31.2794C7.06005 31.2794 7.83224 30.7897 7.83224 30.0928C7.83224 27.9834 1.07081 28.7368 1.07081 24.226C1.07081 21.5422 3.6605 19.8659 6.42911 19.8659C6.84346 19.8659 7.25781 19.8973 7.67216 19.9601C8.0865 20.0229 8.49144 20.1139 8.88695 20.2332C9.28875 20.3525 9.67798 20.5 10.0547 20.6758C10.4313 20.8516 10.7955 21.0556 11.147 21.2879L9.39547 24C9.20085 23.8493 8.99996 23.7175 8.79278 23.6045C8.57933 23.4915 8.3596 23.3942 8.13359 23.3126C7.90758 23.2309 7.67529 23.1682 7.43673 23.1242C7.19816 23.0803 6.9596 23.052 6.72103 23.0395C5.68516 23.0395 4.81879 23.4444 4.81879 24.1695C4.81879 25.987 11.5896 25.2713 11.5896 30.1211C11.5896 32.8049 8.96229 34.4529 6.02417 34.4529C5.52193 34.4466 5.02283 34.4027 4.52687 34.3211C4.0309 34.2395 3.54749 34.1202 3.07664 33.9632C2.59951 33.8 2.13808 33.6054 1.69234 33.3794C1.2466 33.1471 0.819693 32.8803 0.411621 32.5789L2.22911 29.8951ZM25.7246 27.3054C25.7183 27.3995 25.7121 27.4906 25.7058 27.5785C25.6995 27.6664 25.6901 27.7543 25.6775 27.8421C25.665 27.9363 25.6524 28.0274 25.6399 28.1152H15.9591C16.0062 28.5767 16.1381 29.0193 16.3452 29.4336C16.5618 29.848 16.8443 30.2152 17.1928 30.5166C17.5412 30.8274 17.9461 31.0628 18.3793 31.2135C18.8125 31.3735 19.2739 31.4489 19.7354 31.43C20.0681 31.4175 20.3977 31.3735 20.7242 31.2982C21.0443 31.2229 21.3551 31.1161 21.6565 30.978C21.9578 30.8399 22.2434 30.6735 22.5134 30.4789C22.7834 30.278 23.0282 30.0552 23.2479 29.8103L25.3856 31.948C25.0183 32.3529 24.6228 32.7108 24.1896 33.0309C23.747 33.3417 23.2856 33.6148 22.7865 33.8314C22.2968 34.0386 21.7789 34.2081 21.2515 34.3117C20.7242 34.4152 20.1874 34.4717 19.6506 34.4623C18.6807 34.5094 17.7107 34.3493 16.8067 34.0009C15.9026 33.6525 15.0739 33.1157 14.3865 32.4377C13.6991 31.7502 13.1623 30.9309 12.8044 30.0269C12.456 29.1229 12.2959 28.1529 12.3336 27.183C12.3336 23.2843 14.9798 19.8753 19.1327 19.8753C22.9937 19.8753 25.7246 23.1336 25.7246 27.0417C25.7246 27.1296 25.7246 27.2175 25.7246 27.3054ZM21.8919 25.3655C21.8542 25.0265 21.7506 24.7063 21.6 24.4049C21.4399 24.1036 21.2327 23.8399 20.9784 23.6139C20.7242 23.3879 20.4322 23.209 20.1215 23.0865C19.8013 22.9735 19.4717 22.9076 19.1327 22.9076C18.7748 22.9076 18.4264 22.9641 18.0968 23.0865C17.7672 23.1995 17.4565 23.3691 17.1928 23.5951C16.9197 23.8211 16.6843 24.0848 16.5053 24.3861C16.3264 24.6874 16.204 25.017 16.1381 25.3655H21.8919ZM48.7116 20.1578H52.6008L46.1784 34.1704H43.5887L37.1663 20.1578H41.0555L44.8789 28.7179L48.7116 20.1578ZM55.7461 13.5753C56.7161 13.5942 57.573 14.1874 57.9403 15.0915C58.2981 15.9861 58.0815 17.0126 57.3847 17.6906C56.6972 18.3686 55.6614 18.5664 54.7762 18.1897C53.8815 17.8224 53.2977 16.9466 53.2977 15.9767C53.2977 15.6565 53.3636 15.3457 53.486 15.0444C53.6085 14.7525 53.7874 14.4888 54.0134 14.2628C54.2488 14.0368 54.5125 13.8578 54.8138 13.7448C55.1058 13.6224 55.4259 13.5659 55.7461 13.5753ZM53.8721 20.1578H57.6201V34.161H53.8721V20.1578ZM73.0923 31.317C72.7439 31.8161 72.3295 32.2776 71.8587 32.6825C71.3878 33.078 70.8793 33.417 70.3237 33.6995C69.7775 33.9726 69.1936 34.1704 68.591 34.3022C67.9883 34.4341 67.3667 34.4812 66.7546 34.4623C64.7865 34.5094 62.8748 33.7655 61.4717 32.3906C60.0591 31.0157 59.2681 29.1229 59.2681 27.1547C59.2681 25.1865 60.0685 23.3031 61.4905 21.9282C62.9031 20.5534 64.8147 19.8188 66.7829 19.8753C67.3479 19.8659 67.9035 19.9318 68.4497 20.0543C69.0053 20.1767 69.5327 20.3556 70.0412 20.6004C70.5497 20.8453 71.03 21.1372 71.4726 21.4856C71.9058 21.8341 72.3107 22.239 72.6591 22.6722L70.0035 25.017C69.8246 24.7628 69.608 24.5274 69.3726 24.3202C69.1371 24.113 68.8735 23.9435 68.591 23.7928C68.3179 23.6516 68.0165 23.5386 67.7152 23.4632C67.4138 23.3879 67.0936 23.3408 66.7829 23.3408C66.2838 23.3408 65.7847 23.435 65.3232 23.6327C64.8618 23.8211 64.438 24.1036 64.0896 24.4614C63.7318 24.8287 63.4587 25.2525 63.2798 25.7139C63.0914 26.1848 63.0067 26.6839 63.0161 27.183C62.9972 27.6915 63.0914 28.2 63.2798 28.6708C63.4681 29.1417 63.7506 29.5749 64.1085 29.9327C64.4757 30.2906 64.9089 30.5731 65.3798 30.752C65.86 30.9309 66.3685 31.0157 66.8771 30.9969C67.2067 30.9874 67.5363 30.9404 67.8564 30.8556C68.1766 30.7708 68.4874 30.6484 68.7699 30.4883C69.0618 30.3282 69.3349 30.1305 69.5797 29.9045C69.8152 29.6785 70.0318 29.4242 70.2107 29.1511L73.0923 31.317ZM86.6999 31.948C86.3327 32.3529 85.9371 32.7108 85.504 33.0215C85.0614 33.3417 84.5999 33.6054 84.1008 33.822C83.6111 34.0386 83.0932 34.2081 82.5658 34.3117C82.0385 34.4152 81.5017 34.4717 80.9649 34.4623C79.995 34.5094 79.025 34.3493 78.121 34.0009C77.217 33.6525 76.3883 33.1157 75.7008 32.4282C75.0134 31.7502 74.4766 30.9309 74.1282 30.0269C73.7703 29.1229 73.6102 28.1529 73.6479 27.183C73.6479 23.2843 76.3035 19.8753 80.447 19.8753C84.308 19.8753 87.0389 23.1336 87.0389 27.0323C87.0389 27.1265 87.0389 27.2175 87.0389 27.3054C87.0327 27.3933 87.0264 27.4812 87.0201 27.5691C87.0138 27.6632 87.0044 27.7543 86.9918 27.8421C86.9793 27.93 86.9667 28.0179 86.9542 28.1058H77.2829C77.3205 28.5673 77.4524 29.0099 77.6596 29.4242C77.8762 29.8386 78.1587 30.2058 78.5071 30.5166C78.8555 30.8179 79.2605 31.0534 79.6936 31.2135C80.1268 31.3735 80.5883 31.4395 81.0497 31.43C81.3824 31.4175 81.712 31.3735 82.0385 31.2982C82.3587 31.2229 82.6694 31.1161 82.9708 30.978C83.2721 30.8399 83.5578 30.6704 83.8277 30.4695C84.0977 30.2749 84.3425 30.0552 84.5623 29.8103L86.6999 31.948ZM83.2156 25.3655C83.1779 25.0265 83.0744 24.6969 82.9237 24.4049C82.7636 24.1036 82.5564 23.8305 82.3022 23.6139C82.0479 23.3879 81.756 23.209 81.4452 23.0865C81.125 22.9641 80.7954 22.9076 80.4564 22.9076C80.108 22.9076 79.7501 22.9641 79.4205 23.0771C79.091 23.1995 78.7896 23.3691 78.5165 23.5951C78.2434 23.8117 78.008 24.0848 77.8291 24.3861C77.6501 24.6874 77.5277 25.017 77.4618 25.3655H83.2156ZM88.5362 34.1704V20.1578H92.1335V21.2879C92.4098 21.0619 92.7017 20.8578 93.0093 20.6758C93.317 20.5 93.6403 20.3525 93.9793 20.2332C94.3183 20.1139 94.6636 20.0229 95.0152 19.9601C95.3667 19.9036 95.7214 19.8753 96.0793 19.8753C96.5313 19.8753 96.9927 19.9224 97.4447 20.0166C97.8968 20.1202 98.33 20.2614 98.7443 20.4592C99.1587 20.6569 99.5542 20.8924 99.9214 21.1749C100.289 21.4574 100.618 21.7776 100.91 22.126C101.18 22.4713 101.416 22.8417 101.616 23.2372C101.811 23.6265 101.971 24.0314 102.097 24.452C102.216 24.8726 102.298 25.2995 102.342 25.7327C102.386 26.1659 102.389 26.6022 102.351 27.0417V34.1704H98.6125V26.7404C98.6376 26.5081 98.6376 26.2726 98.6125 26.0341C98.5873 25.8018 98.5403 25.5695 98.4712 25.3372C98.4021 25.1112 98.308 24.8946 98.1887 24.6874C98.0694 24.4865 97.9313 24.2951 97.7743 24.113C97.6362 23.9812 97.4824 23.865 97.3129 23.7646C97.1497 23.6641 96.9802 23.5825 96.8044 23.5197C96.6223 23.4507 96.4371 23.4004 96.2488 23.3691C96.0542 23.3377 95.8627 23.3251 95.6744 23.3314C95.3448 23.3408 95.0152 23.3879 94.695 23.4726C94.3842 23.5574 94.0735 23.6704 93.7815 23.8211C93.4896 23.9717 93.2071 24.1507 92.9622 24.3578C92.708 24.5744 92.4726 24.8099 92.2748 25.0735V34.1704H88.5362ZM124.735 34.1704L119.17 20.1578H122.908L125.96 28.1717L128.945 20.1578H132.071L135.038 28.1717L138.108 20.1578H141.846L136.29 34.1704H133.503L130.508 26.1942L127.523 34.1704H124.735Z" fill="white"/>
<path fill-rule="evenodd" clip-rule="evenodd" d="M141.874 32.5789H141.564V33.1722H141.291V31.5525H141.95C142.019 31.5525 142.085 31.565 142.147 31.5901C142.21 31.6152 142.267 31.6529 142.317 31.7031C142.367 31.7534 142.405 31.8099 142.43 31.8726C142.455 31.9354 142.468 32.0013 142.468 32.0704C142.468 32.1269 142.461 32.1771 142.449 32.2211C142.43 32.2713 142.408 32.3184 142.383 32.3623C142.352 32.4 142.317 32.4345 142.279 32.4659C142.242 32.5036 142.198 32.5318 142.147 32.5507L142.515 33.1816H142.223L141.874 32.5789ZM141.564 32.3341H141.95C142.016 32.3341 142.091 32.3058 142.138 32.2587C142.195 32.2022 142.223 32.1363 142.223 32.061C142.223 31.9951 142.195 31.9197 142.138 31.8726C142.091 31.8161 142.016 31.7879 141.95 31.7879H141.564V32.3341Z" fill="white"/>
<path fill-rule="evenodd" clip-rule="evenodd" d="M142.505 30.7803C142.722 30.8744 142.91 30.9969 143.08 31.157C143.24 31.3265 143.372 31.5148 143.456 31.7314C143.541 31.9386 143.588 32.1646 143.588 32.4C143.588 33.1063 143.165 33.7372 142.505 34.0103C141.856 34.2834 141.102 34.1327 140.603 33.6336C140.104 33.1345 139.953 32.3812 140.226 31.7314C140.49 31.0722 141.13 30.6484 141.837 30.6484C142.072 30.6484 142.298 30.6955 142.505 30.7803ZM141.262 31.0063C141.083 31.0816 140.914 31.1852 140.773 31.3265C140.631 31.4677 140.528 31.6372 140.452 31.8161C140.377 32.0045 140.33 32.1928 140.33 32.3906C140.33 33.0027 140.697 33.5489 141.262 33.7843C141.827 34.0197 142.477 33.8879 142.91 33.4547C143.334 33.0309 143.466 32.3812 143.23 31.8161C142.995 31.2511 142.449 30.8839 141.837 30.8839C141.639 30.8839 141.441 30.9309 141.262 31.0063Z" fill="white"/>
</g>
</g>
<defs>
<clipPath id="clip0_329_3321">
<rect width="143.327" height="48" fill="white" transform="translate(0.336304)"/>
</clipPath>
<clipPath id="clip1_329_3321">
<rect width="143.327" height="21" fill="white" transform="translate(0.336304 13.5)"/>
</clipPath>
</defs>
</svg>
