<svg xmlns="http://www.w3.org/2000/svg" width="40" height="40" viewBox="0 0 40 40" fill="none">
  <g clip-path="url(#clip0_329_3315)">
    <path fill-rule="evenodd" clip-rule="evenodd" d="M14.6658 0C12.4547 0.00163099 10.6651 1.79246 10.6668 3.99918C10.6651 6.20591 12.4563 7.99674 14.6674 7.99837H18.6681V4.00081C18.6697 1.79409 16.8786 0.00326198 14.6658 0C14.6674 0 14.6674 0 14.6658 0ZM14.6658 10.6667H4.00066C1.78951 10.6683 -0.00162979 12.4591 4.46622e-06 14.6658C-0.00326404 16.8726 1.78788 18.6634 3.99902 18.6667H14.6658C16.8769 18.665 18.6681 16.8742 18.6665 14.6675C18.6681 12.4591 16.8769 10.6683 14.6658 10.6667Z" fill="#36C5F0"/>
    <path fill-rule="evenodd" clip-rule="evenodd" d="M40.0001 14.6658C40.0017 12.4591 38.2106 10.6683 35.9994 10.6667C33.7883 10.6683 31.9971 12.4591 31.9988 14.6658V18.6667H35.9994C38.2106 18.665 40.0017 16.8742 40.0001 14.6658ZM29.3333 14.6658V3.99918C29.3349 1.79409 27.5454 0.00326198 25.3343 0C23.1231 0.00163099 21.332 1.79246 21.3336 3.99918V14.6658C21.3304 16.8726 23.1215 18.6634 25.3326 18.6667C27.5438 18.665 29.3349 16.8742 29.3333 14.6658Z" fill="#2EB67D"/>
    <path fill-rule="evenodd" clip-rule="evenodd" d="M25.3326 40C27.5437 39.9984 29.3349 38.2075 29.3332 36.0008C29.3349 33.7941 27.5437 32.0033 25.3326 32.0016H21.3319V36.0008C21.3303 38.2059 23.1214 39.9967 25.3326 40ZM25.3326 29.3317H35.9993C38.2105 29.3301 40.0016 27.5392 40 25.3325C40.0033 23.1258 38.2121 21.335 36.001 21.3317H25.3342C23.1231 21.3333 21.3319 23.1242 21.3335 25.3309C21.3319 27.5392 23.1214 29.3301 25.3326 29.3317Z" fill="#ECB22E"/>
    <path fill-rule="evenodd" clip-rule="evenodd" d="M1.11744e-06 25.3325C-0.00163314 27.5392 1.78951 29.3301 4.00065 29.3317C6.2118 29.3301 8.00294 27.5392 8.00131 25.3325V21.3333H4.00065C1.78951 21.335 -0.00163314 23.1258 1.11744e-06 25.3325ZM10.6668 25.3325V35.9992C10.6635 38.2059 12.4546 39.9967 14.6658 40C16.8769 39.9984 18.6681 38.2075 18.6664 36.0008V25.3358C18.6697 23.1291 16.8786 21.3382 14.6674 21.335C12.4546 21.335 10.6651 23.1258 10.6668 25.3325Z" fill="#E01E5A"/>
  </g>
  <defs>
    <clipPath id="clip0_329_3315">
      <rect width="40" height="40" fill="white"/>
    </clipPath>
  </defs>
</svg>