<svg xmlns="http://www.w3.org/2000/svg" width="36" height="36" viewBox="0 0 36 36" fill="none">
  <path fill-rule="evenodd" clip-rule="evenodd" d="M34.8309 15.5283L30.5779 17.9777L34.8309 20.4194C35.0933 20.5619 35.3246 20.7551 35.511 20.9879C35.6973 21.2207 35.8351 21.4883 35.9161 21.7749C35.9971 22.0615 36.0198 22.3613 35.9827 22.6567C35.9456 22.9522 35.8496 23.2373 35.7003 23.4952C35.551 23.7531 35.3514 23.9787 35.1132 24.1586C34.875 24.3386 34.6032 24.4692 34.3136 24.5429C34.0239 24.6166 33.7225 24.6319 33.4269 24.5878C33.1312 24.5437 32.8475 24.4411 32.5923 24.2861L24.9743 19.9059C24.484 19.626 24.1198 19.1699 23.9562 18.6312C23.8819 18.3967 23.8479 18.1515 23.8556 17.9058C23.8608 17.73 23.8866 17.5541 23.933 17.3782C24.0902 16.8131 24.463 16.3317 24.9717 16.0367L32.5871 11.6616C32.8419 11.5153 33.1231 11.4204 33.4147 11.3824C33.7063 11.3443 34.0026 11.3639 34.2866 11.44C34.5706 11.516 34.8368 11.6471 35.0699 11.8257C35.3031 12.0042 35.4986 12.2268 35.6454 12.4807C35.7938 12.7337 35.8905 13.0135 35.9299 13.3039C35.9693 13.5943 35.9506 13.8896 35.8748 14.1728C35.7991 14.456 35.6679 14.7214 35.4887 14.9538C35.3095 15.1863 35.086 15.3824 34.8309 15.5283ZM30.8034 27.3979L23.1919 23.0255C22.8 22.7969 22.3467 22.6946 21.8941 22.7328C21.3301 22.774 20.8028 23.0266 20.4182 23.4396C20.0337 23.8527 19.8206 24.3955 19.8218 24.9588V33.714C19.8146 34.0116 19.8673 34.3076 19.9766 34.5846C20.086 34.8617 20.2499 35.1141 20.4587 35.3271C20.6674 35.5401 20.9169 35.7093 21.1923 35.8249C21.4677 35.9405 21.7635 36 22.0623 36C22.3612 36 22.657 35.9405 22.9324 35.8249C23.2078 35.7093 23.4572 35.5401 23.666 35.3271C23.8747 35.1141 24.0386 34.8617 24.148 34.5846C24.2574 34.3076 24.31 34.0116 24.3029 33.714V28.8165L28.5648 31.2672C28.8192 31.4144 29.1003 31.5102 29.3919 31.549C29.6836 31.5878 29.98 31.5688 30.2643 31.4932C30.5486 31.4176 30.8151 31.2868 31.0485 31.1083C31.2819 30.9299 31.4776 30.7073 31.6244 30.4533C31.9216 29.9395 32.0021 29.3293 31.8482 28.7565C31.6943 28.1837 31.3186 27.6951 30.8034 27.3979ZM22.0191 18.8327L18.8539 21.9818C18.7456 22.0824 18.6049 22.1415 18.457 22.1487H17.5278C17.38 22.1406 17.2397 22.0816 17.1308 21.9818L13.9656 18.8327C13.8671 18.7246 13.8092 18.5857 13.8019 18.4399V17.513C13.8019 17.3846 13.8741 17.2062 13.9656 17.115L17.1282 13.9673C17.2373 13.8681 17.3777 13.81 17.5252 13.803H18.457C18.5858 13.803 18.7624 13.8748 18.8539 13.9673L22.0191 17.1163C22.1094 17.2062 22.1828 17.3846 22.1828 17.5143V18.4412C22.1746 18.5868 22.1168 18.724 22.0191 18.8327ZM19.4893 17.9598C19.4791 17.8121 19.4197 17.672 19.3204 17.5618L18.4054 16.6516C18.2957 16.5525 18.1551 16.494 18.0072 16.486H17.9711C17.8242 16.4946 17.6849 16.5535 17.5767 16.6529L16.6617 17.5618C16.5647 17.6727 16.5079 17.8128 16.5006 17.9598V17.9957C16.5006 18.1228 16.5702 18.2987 16.6604 18.3885L17.5767 19.3C17.667 19.3911 17.8435 19.4669 17.9711 19.4669H18.0072C18.1547 19.4579 18.2947 19.399 18.4041 19.3L19.3204 18.3885C19.4196 18.2805 19.4788 18.1418 19.488 17.9957L19.4893 17.9598ZM5.18001 8.54725L12.7954 12.9249C13.2052 13.1598 13.6589 13.2535 14.0945 13.2176C14.6586 13.1751 15.1858 12.9219 15.5703 12.5086C15.9549 12.0953 16.1684 11.5525 16.1681 10.989V2.23374C16.1541 1.65109 15.9119 1.09701 15.4932 0.689871C15.0746 0.28273 14.5127 0.0548143 13.9276 0.0548143C13.3425 0.0548143 12.7806 0.28273 12.3619 0.689871C11.9433 1.09701 11.7011 1.65109 11.687 2.23374V7.13255L7.42119 4.67801C6.90609 4.3818 6.29396 4.30154 5.71946 4.4549C5.14495 4.60826 4.65514 4.98267 4.35777 5.49576C4.0604 6.00886 3.97983 6.6186 4.13379 7.19087C4.28775 7.76313 4.66491 8.25104 5.18001 8.54725ZM21.8954 13.2176C22.3475 13.2544 22.8 13.1523 23.1919 12.9249L30.8034 8.54725C31.3184 8.25057 31.6941 7.76244 31.848 7.19006C32.0019 6.61768 31.9215 6.00784 31.6244 5.49448C31.3273 4.9821 30.8381 4.60824 30.2643 4.45512C29.6906 4.30201 29.0793 4.38218 28.5648 4.67801L24.3016 7.13384V2.23117C24.3016 1.63943 24.0656 1.07192 23.6455 0.653494C23.2255 0.235069 22.6557 0 22.0617 0C21.4676 0 20.8979 0.235069 20.4778 0.653494C20.0578 1.07192 19.8218 1.63943 19.8218 2.23117V10.9877C19.8205 11.5512 20.0336 12.0944 20.4181 12.5078C20.8025 12.9213 21.3299 13.1744 21.8941 13.2163L21.8954 13.2176ZM14.0945 22.7328C13.6415 22.6944 13.1877 22.7966 12.7954 23.0255L5.17872 27.3979C4.66429 27.6958 4.28932 28.1846 4.13593 28.7572C3.98254 29.3299 4.06324 29.9398 4.36035 30.4533C4.65783 30.9649 5.147 31.3379 5.72042 31.4905C6.29384 31.6431 6.90461 31.5628 7.41861 31.2672L11.6845 28.8165V33.7153C11.6845 34.3072 11.9205 34.8749 12.3407 35.2934C12.7609 35.712 13.3308 35.9471 13.925 35.9471C14.5192 35.9471 15.0891 35.712 15.5093 35.2934C15.9295 34.8749 16.1655 34.3072 16.1655 33.7153V24.9588C16.167 24.3956 15.9542 23.8528 15.5699 23.4397C15.1856 23.0266 14.6583 22.774 14.0945 22.7328ZM12.0298 18.6312C12.1046 18.3937 12.1355 18.1485 12.1304 17.9058C12.1197 17.5244 12.0107 17.1522 11.8139 16.8249C11.6171 16.4975 11.3391 16.2261 11.0066 16.0367L3.39763 11.6616C3.14285 11.5149 2.86151 11.4197 2.56973 11.3815C2.27795 11.3433 1.98147 11.3627 1.69726 11.4388C1.41305 11.5149 1.1467 11.6461 0.913471 11.8249C0.680241 12.0037 0.484711 12.2265 0.338083 12.4807C0.190378 12.7341 0.0944008 13.0142 0.0556641 13.3047C0.0169274 13.5952 0.0361947 13.8905 0.112359 14.1735C0.188524 14.4566 0.320084 14.7219 0.499484 14.9542C0.678884 15.1865 0.902587 15.3811 1.15774 15.527L5.4107 17.9777L1.15517 20.4194C0.894829 20.5631 0.665822 20.757 0.48151 20.9897C0.297198 21.2225 0.161272 21.4895 0.0816651 21.7751C0.00205771 22.0608 -0.0196368 22.3594 0.0178476 22.6535C0.055332 22.9475 0.151245 23.2313 0.299988 23.488C0.448732 23.7448 0.647327 23.9695 0.884184 24.149C1.12104 24.3285 1.39142 24.4592 1.67953 24.5335C1.96765 24.6078 2.26773 24.6242 2.56228 24.5817C2.85682 24.5392 3.13992 24.4387 3.39506 24.2861L11.0053 19.9059C11.5208 19.6132 11.8688 19.1511 12.0298 18.6312Z" fill="#249EDC"/>
</svg>