<?xml version="1.0" standalone="no"?>
<!DOCTYPE svg PUBLIC "-//W3C//DTD SVG 20010904//EN"
 "http://www.w3.org/TR/2001/REC-SVG-20010904/DTD/svg10.dtd">
<svg version="1.0" xmlns="http://www.w3.org/2000/svg"
 width="576.000000pt" height="576.000000pt" viewBox="0 0 576.000000 576.000000"
 preserveAspectRatio="xMidYMid meet">
<metadata>
Created by potrace 1.14, written by Peter Selinger 2001-2017
</metadata>
<g transform="translate(0.000000,576.000000) scale(0.100000,-0.100000)"
fill="#000000" stroke="none">
<path d="M2459 5516 c-2 -2 -49 -7 -104 -11 -55 -4 -108 -9 -119 -11 -11 -2
-44 -6 -75 -9 -31 -3 -69 -8 -86 -11 -16 -4 -41 -8 -55 -9 -27 -3 -90 -14
-124 -21 -11 -3 -46 -9 -76 -15 -118 -23 -410 -104 -410 -114 0 -2 -11 -46
-25 -97 -14 -51 -28 -109 -31 -128 -3 -19 -7 -43 -10 -52 -7 -22 -14 -58 -18
-88 -4 -25 -15 -86 -23 -125 -2 -11 -6 -42 -9 -70 -3 -27 -7 -61 -10 -75 -3
-19 -15 -130 -16 -160 -2 -27 5 -28 59 -9 61 21 290 85 333 93 14 3 36 8 50
11 37 9 230 45 270 50 19 3 45 7 57 9 12 3 53 7 90 11 37 3 77 8 88 10 101 20
730 24 707 4 -4 -3 -29 -12 -57 -18 -128 -30 -433 -130 -540 -176 -16 -8 -52
-24 -80 -36 -27 -12 -52 -22 -55 -22 -5 0 -331 -165 -359 -182 -9 -5 -55 -32
-101 -60 -47 -27 -89 -53 -95 -57 -5 -5 -50 -36 -100 -70 -49 -33 -131 -92
-181 -130 -85 -63 -91 -70 -89 -101 7 -83 16 -174 20 -197 2 -14 6 -45 9 -70
4 -25 9 -58 12 -75 3 -16 7 -41 9 -55 2 -14 6 -36 9 -50 9 -38 15 -71 22 -110
3 -19 10 -48 14 -65 5 -16 12 -41 14 -55 26 -126 125 -431 191 -585 86 -200
95 -218 95 -177 0 12 1 24 1 27 3 9 20 100 26 130 25 142 151 420 258 570 62
87 185 221 273 298 44 38 76 52 45 19 -10 -10 -29 -33 -43 -52 -14 -18 -34
-45 -46 -59 -41 -51 -174 -293 -174 -317 0 -3 -6 -20 -14 -37 -25 -58 -63
-180 -72 -235 -2 -12 -9 -50 -15 -84 -18 -104 -24 -244 -15 -379 6 -80 40
-268 58 -319 3 -8 16 -44 28 -80 26 -79 59 -148 83 -175 9 -10 16 -24 13 -30
-4 -12 11 -31 137 -169 45 -49 109 -119 142 -155 134 -148 296 -304 432 -418
48 -41 61 -51 138 -109 201 -152 467 -316 697 -427 128 -63 251 -117 264 -117
3 0 -8 17 -24 38 -31 40 -113 165 -146 222 -70 124 -78 138 -128 250 -50 110
-113 281 -124 335 -2 11 -8 31 -13 45 -9 23 -25 92 -36 148 -2 13 -6 31 -9 40
-3 9 -8 40 -11 67 -4 28 -9 61 -11 75 -15 103 -19 174 -19 380 0 129 4 255 8
280 7 41 21 112 31 165 8 38 48 160 73 220 38 95 63 143 126 244 160 258 381
457 657 593 108 53 281 113 355 124 11 1 40 7 65 13 172 39 470 30 655 -19 22
-6 49 -13 60 -15 40 -9 162 -54 268 -99 l108 -46 -6 53 c-4 28 -9 63 -11 77
-3 23 -22 123 -28 145 -13 49 -28 103 -33 115 -3 8 -7 20 -9 25 -14 54 -98
231 -123 259 -9 10 -14 19 -12 20 4 1 -58 96 -113 173 -105 146 -348 346 -527
434 -35 17 -66 33 -67 34 -3 3 -13 38 -27 99 -2 10 -18 48 -34 83 -54 115
-191 222 -403 316 -74 32 -223 90 -263 101 -73 20 -103 30 -120 37 -42 18
-342 96 -440 113 -16 3 -41 8 -55 11 -41 8 -132 24 -180 31 -72 10 -91 12
-160 19 -36 4 -83 9 -105 12 -49 5 -581 14 -586 9z m1876 -843 c30 -30 46 -56
51 -81 4 -20 8 -44 10 -53 13 -75 -88 -204 -148 -191 -5 1 -8 -2 -8 -7 0 -4
-19 -7 -43 -6 -145 9 -234 136 -186 268 26 71 79 114 156 126 71 10 117 -5
168 -56z"/>
</g>
</svg>
