<svg xmlns="http://www.w3.org/2000/svg" width="36" height="36" viewBox="0 0 36 36" fill="none">
  <path d="M21 22C20.4477 22 20 22.4477 20 23C20 23.5523 20.4477 24 21 24V22ZM26 23V24C26.4045 24 26.7691 23.7564 26.9239 23.3827C27.0787 23.009 26.9931 22.5789 26.7071 22.2929L26 23ZM24.595 21.595L23.8878 22.302L23.8879 22.3021L24.595 21.595ZM24 20.158L25 20.1581V20.158H24ZM19.9993 11.3408L18.9993 11.3387C18.9985 11.7632 19.2657 12.142 19.6659 12.2835L19.9993 11.3408ZM20 11L21 11.002V11H20ZM16 11.341L16.3334 12.2838C16.7329 12.1425 17 11.7648 17 11.341H16ZM11.405 21.595L12.1121 22.3021L11.405 21.595ZM10 23L9.29289 22.2929C9.0069 22.5789 8.92134 23.009 9.07612 23.3827C9.2309 23.7564 9.59554 24 10 24V23ZM15 24C15.5523 24 16 23.5523 16 23C16 22.4477 15.5523 22 15 22V24ZM22 23C22 22.4477 21.5523 22 21 22C20.4477 22 20 22.4477 20 23H22ZM16 23C16 22.4477 15.5523 22 15 22C14.4477 22 14 22.4477 14 23H16ZM21 24C21.5523 24 22 23.5523 22 23C22 22.4477 21.5523 22 21 22V24ZM15 22C14.4477 22 14 22.4477 14 23C14 23.5523 14.4477 24 15 24V22ZM21 24H26V22H21V24ZM26.7071 22.2929L25.3021 20.8879L23.8879 22.3021L25.2929 23.7071L26.7071 22.2929ZM25.3022 20.888C25.1087 20.6944 25 20.4319 25 20.1581L23 20.1579C22.9999 20.962 23.3192 21.7333 23.8878 22.302L25.3022 20.888ZM25 20.158V17H23V20.158H25ZM25 17C25 14.0323 23.1301 11.3873 20.3327 10.398L19.6659 12.2835C21.6641 12.9902 23 14.8796 23 17H25ZM20.9993 11.3428L21 11.002L19 10.998L18.9993 11.3387L20.9993 11.3428ZM21 11C21 9.34315 19.6569 8 18 8V10C18.5523 10 19 10.4477 19 11H21ZM18 8C16.3431 8 15 9.34315 15 11H17C17 10.4477 17.4477 10 18 10V8ZM15 11V11.341H17V11H15ZM15.6666 10.3982C12.9497 11.359 11 13.951 11 17H13C13 14.825 14.3903 12.971 16.3334 12.2838L15.6666 10.3982ZM11 17V20.159H13V17H11ZM11 20.159C11 20.4318 10.8914 20.6944 10.6979 20.8879L12.1121 22.3021C12.6806 21.7336 13 20.9622 13 20.159H11ZM10.6979 20.8879L9.29289 22.2929L10.7071 23.7071L12.1121 22.3021L10.6979 20.8879ZM10 24H15V22H10V24ZM20 23V24H22V23H20ZM20 24C20 25.1046 19.1046 26 18 26V28C20.2091 28 22 26.2091 22 24H20ZM18 26C16.8954 26 16 25.1046 16 24H14C14 26.2091 15.7909 28 18 28V26ZM16 24V23H14V24H16ZM21 22H15V24H21V22Z" fill="#BBC7D5"/>
</svg>