<svg width="52" height="52" viewBox="0 0 52 52" fill="none" xmlns="http://www.w3.org/2000/svg">
<g id="influxdb 1" clip-path="url(#clip0_22_422)">
<path id="Cuboctahedron" d="M50.0993 31.0787L45.4193 10.7005C45.1536 9.58535 44.1424 8.47024 43.0273 8.14668L21.638 1.54846C21.3722 1.44446 21.0544 1.44446 20.7309 1.44446C19.8238 1.44446 18.8704 1.81424 18.2291 2.35157L2.90645 16.6111C2.05711 17.3565 1.62956 18.8471 1.89533 19.9102L6.89889 41.7271C7.16467 42.8422 8.17578 43.9631 9.29089 44.2809L29.2936 50.4516C29.5593 50.5556 29.8771 50.5556 30.2007 50.5556C31.1078 50.5556 32.0611 50.1858 32.7024 49.6485L49.0882 34.4356C49.9433 33.6382 50.3651 32.1996 50.0993 31.0787ZM23.874 6.39024L38.5553 10.9142C39.1389 11.076 39.1389 11.3418 38.5553 11.4978L30.842 13.2542C30.2584 13.416 29.4611 13.1502 29.0336 12.7227L23.6602 6.92179C23.1807 6.44801 23.2847 6.23424 23.874 6.39024ZM33.0202 32.7311C33.182 33.3147 32.8064 33.6382 32.2229 33.4765L16.3687 28.5827C15.7851 28.4209 15.6753 27.9413 16.1029 27.5196L28.2362 16.2356C28.6638 15.808 29.1433 15.9698 29.2993 16.5533L33.0202 32.7311ZM6.89889 18.3618L19.7776 6.39024C20.2051 5.96268 20.8927 6.02046 21.3202 6.44224L27.7567 13.416C28.1842 13.8436 28.1264 14.5311 27.7047 14.9587L14.826 26.9302C14.3984 27.3578 13.7109 27.3 13.2833 26.8782L6.84689 19.9102C6.41933 19.4307 6.47711 18.7373 6.89889 18.3618ZM10.042 37.3591L6.63889 22.4062C6.47711 21.8227 6.74289 21.7129 7.11844 22.1405L12.4918 27.9413C12.9193 28.3689 13.0753 29.2182 12.9193 29.8018L10.5736 37.3591C10.4118 37.9427 10.146 37.9427 10.042 37.3591ZM28.8718 46.0836L12.0584 40.924C11.4749 40.7622 11.1513 40.1267 11.3131 39.5431L14.1327 30.4951C14.2944 29.9116 14.93 29.588 15.5136 29.7498L32.3269 34.9093C32.9104 35.0711 33.234 35.7067 33.0722 36.2902L30.2527 45.3382C30.0447 45.9276 29.4611 46.2453 28.8718 46.0836ZM43.7669 33.8462L32.5464 44.2751C32.1189 44.7027 31.9109 44.5409 32.0669 43.9573L34.4069 36.4C34.5687 35.8165 35.2042 35.2271 35.7878 35.1231L43.5011 33.3667C44.0904 33.2107 44.1944 33.4765 43.7669 33.8462ZM44.9918 31.616L35.7358 33.7422C35.1522 33.904 34.5629 33.5285 34.4069 32.9449L30.4722 15.8138C30.3104 15.2302 30.686 14.6409 31.2696 14.4849L40.5256 12.3587C41.1091 12.1969 41.6984 12.5725 41.8544 13.156L45.7891 30.2871C45.9509 30.9227 45.5811 31.5062 44.9918 31.616Z" fill="#22ADF6"/>
</g>
<defs>
<clipPath id="clip0_22_422">
<rect width="52" height="52" fill="white"/>
</clipPath>
</defs>
</svg>
