<svg width="62" height="48" viewBox="0 0 62 48" fill="none" xmlns="http://www.w3.org/2000/svg">
<g id="Group">
<g id="Combined-Shape">
<path id="Vector" d="M53.2473 39.8437C55.4819 39.8437 57.2809 41.6625 57.2809 43.9218C57.2809 46.1811 55.4819 48 53.2473 48C51.0128 48 49.2138 46.1811 49.2138 43.9218C49.2138 41.6625 51.0128 39.8437 53.2473 39.8437ZM19.8229 39.8437C22.0575 39.8437 23.8564 41.6625 23.8564 43.9218C23.8564 46.1811 22.0575 48 19.8229 48C17.5883 48 15.7894 46.1811 15.7894 43.9218C15.7894 41.6625 17.5883 39.8437 19.8229 39.8437ZM0.285645 0C9.49527 0.456331 15.7668 6.78367 16.6555 16.5191C17.6349 27.3013 27.102 35.2584 37.7408 34.2661C47.3204 33.3715 54.6547 25.5193 55.3004 16.1026L61.9999 16.0918C61.347 28.9673 51.4156 39.7748 38.3574 40.9918C37.5449 41.0666 36.7409 41.1041 35.9453 41.1041C22.6332 41.1041 11.24 30.8072 9.99584 17.1421C9.42275 10.8582 5.97685 7.20018 0.285645 6.78367V0ZM36.3552 17.0367C36.6864 17.0367 36.9916 17.2155 37.1532 17.5043L43.461 28.5581C43.5863 28.778 43.6177 29.0391 43.548 29.2824C43.474 29.5279 43.3022 29.7321 43.0729 29.8474C41.2792 30.7473 39.3331 31.305 37.3345 31.4917C34.6488 31.7447 31.9426 31.3162 29.467 30.2458C29.2222 30.1417 29.0344 29.9371 28.9519 29.6844C28.8689 29.4315 28.8966 29.1554 29.0281 28.9239L35.5572 17.5043C35.7187 17.2155 36.024 17.0367 36.3552 17.0367ZM31.491 16.1062C31.8221 16.1062 32.1274 16.2849 32.289 16.5734C32.4526 16.8622 32.4526 17.2155 32.289 17.5043L26.6559 27.3773C26.5211 27.6162 26.2863 27.7823 26.0159 27.83C25.7455 27.8777 25.4679 27.802 25.2594 27.6236C22.2655 25.0523 20.2919 21.4963 19.6951 17.5984C19.6806 17.4898 19.6625 17.3268 19.6407 17.1457C19.6098 16.8833 19.6915 16.6202 19.8656 16.4213C20.0389 16.2217 20.2902 16.1067 20.5548 16.1062H31.491ZM51.129 16.1026C51.3947 16.103 51.6472 16.2179 51.8218 16.4177C51.9936 16.6179 52.075 16.88 52.0467 17.1421C51.656 20.2472 50.3921 23.1782 48.4013 25.5954C48.0021 26.0824 47.5746 26.5456 47.1209 26.9826C46.9225 27.1824 46.6423 27.2788 46.3628 27.2433C46.0816 27.2026 45.8351 27.0341 45.6954 26.787L40.3959 17.5006C40.2294 17.2126 40.2294 16.8578 40.3959 16.5698C40.5576 16.2813 40.8628 16.1026 41.1939 16.1026H51.129Z" fill="white"/>
</g>
</g>
</svg>
