<svg width="24" height="24" viewBox="0 0 24 24" fill="none" xmlns="http://www.w3.org/2000/svg">
<path d="M9 4.80769C9 4.36185 9.39098 4 9.87273 4H14.5273C15.009 4 15.4 4.36185 15.4 4.80769V7.5C15.4 7.94585 15.009 8.30769 14.5273 8.30769H9.87273C9.64127 8.30769 9.41928 8.2226 9.25562 8.07112C9.09195 7.91965 9 7.71421 9 7.5V4.80769Z" stroke="#E0E1E5" stroke-width="1.5" stroke-linecap="round" stroke-linejoin="round"/>
<path d="M15 16.8077C15 16.3618 15.391 16 15.8727 16H20.5273C21.009 16 21.4 16.3618 21.4 16.8077V19.5C21.4 19.9458 21.009 20.3077 20.5273 20.3077H15.8727C15.6413 20.3077 15.4193 20.2226 15.2556 20.0711C15.0919 19.9197 15 19.7142 15 19.5V16.8077Z" stroke="#E0E1E5" stroke-width="1.5" stroke-linecap="round" stroke-linejoin="round"/>
<path d="M3 16.8077C3 16.3618 3.39098 16 3.87273 16H8.52727C9.00902 16 9.4 16.3618 9.4 16.8077V19.5C9.4 19.9458 9.00902 20.3077 8.52727 20.3077H3.87273C3.64127 20.3077 3.41928 20.2226 3.25562 20.0711C3.09195 19.9197 3 19.7142 3 19.5V16.8077Z" stroke="#E0E1E5" stroke-width="1.5" stroke-linecap="round" stroke-linejoin="round"/>
<path d="M18 15L18 12" stroke="#E0E1E5" stroke-width="1.5" stroke-linecap="round" stroke-linejoin="round"/>
<path d="M6 15L6 12" stroke="#E0E1E5" stroke-width="1.5" stroke-linecap="round" stroke-linejoin="round"/>
<path d="M6 15L6 12" stroke="#E0E1E5" stroke-width="1.5" stroke-linecap="round" stroke-linejoin="round"/>
<path d="M12 12L12 9" stroke="#E0E1E5" stroke-width="1.5" stroke-linecap="round" stroke-linejoin="round"/>
<path d="M6 12L18 12" stroke="#E0E1E5" stroke-width="1.5" stroke-linecap="round" stroke-linejoin="round"/>
</svg>
