<svg width="52" height="52" viewBox="0 0 52 52" fill="none" xmlns="http://www.w3.org/2000/svg">
<g id="prometheus-svgrepo-com 1">
<path id="Vector" d="M25.9999 48.75C21.9276 48.75 18.624 46.0298 18.624 42.6741H33.3741C33.3758 46.0281 30.0738 48.75 25.9999 48.75Z" fill="#E6522C"/>
<path id="Vector_2" d="M38.181 40.6624H13.8174V36.244H38.1826V40.6624H38.181Z" fill="#E6522C"/>
<path id="Vector_3" d="M38.0948 33.9625H13.8872C13.8059 33.8699 13.7247 33.7789 13.6467 33.6846C12.0147 31.8865 10.7711 29.7711 9.99368 27.4706C9.98393 27.417 13.0178 28.0897 15.1693 28.574C15.1693 28.574 16.2759 28.8307 17.8944 29.1249C16.3265 27.3191 15.4491 25.0162 15.4179 22.6249C15.4179 17.4249 19.4024 12.8879 17.9659 9.21862C19.365 9.33237 20.8617 12.1712 20.9624 16.6107C22.3807 14.1449 23.1103 11.3432 23.0749 8.49874C23.0749 6.11487 24.6447 3.34749 26.216 3.25162C24.8153 5.55912 26.5784 7.53837 28.1465 12.4459C28.7348 14.2886 28.6601 17.3924 29.1134 19.3586C29.2646 15.2717 29.9665 9.30962 32.5584 7.25237C31.4209 9.85237 32.7209 13.0877 33.6261 14.6477C35.2003 17.0246 36.0121 19.825 35.953 22.6752C35.9448 25.0486 35.0949 27.342 33.5546 29.1476C35.2657 28.8226 36.4487 28.5366 36.4487 28.5366L42.0078 27.4527C41.2536 29.9092 39.9102 32.144 38.0948 33.9625Z" fill="#E6522C"/>
</g>
</svg>
