<svg xmlns="http://www.w3.org/2000/svg" width="16" height="20" viewBox="0 0 16 20" fill="none">
  <path d="M14.8462 12.0769V9.65385C14.8462 8.82759 14.5179 8.03518 13.9337 7.45094C13.3494 6.86669 12.557 6.53846 11.7308 6.53846H10.3462C10.0707 6.53846 9.8066 6.42905 9.61185 6.2343C9.4171 6.03955 9.30769 5.77542 9.30769 5.5V4.11538C9.30769 3.28913 8.97947 2.49672 8.39522 1.91248C7.81097 1.32823 7.01856 1 6.19231 1H4.46154M5.15385 14.1538V14.8462M7.92308 12.0769V14.8462M10.6923 10V14.8462M6.53846 1H2.03846C1.46523 1 1 1.46523 1 2.03846V17.9615C1 18.5348 1.46523 19 2.03846 19H13.8077C14.3809 19 14.8462 18.5348 14.8462 17.9615V9.30769C14.8462 7.10436 13.9709 4.99126 12.4129 3.43327C10.8549 1.87527 8.7418 1 6.53846 1Z" stroke="#BBC7D5" stroke-width="2" stroke-linecap="round" stroke-linejoin="round"/>
</svg>