<svg width="24" height="24" viewBox="0 0 24 24" fill="none" xmlns="http://www.w3.org/2000/svg">
<g id="Type=Solid">
<path id="Icon" d="M20.9367 13.0733C21.3432 12.87 21.6 12.4545 21.6 12C21.6 11.5455 21.3432 11.13 20.9367 10.9267L4.13669 2.52669C3.71105 2.31387 3.19987 2.37268 2.83367 2.6766C2.46748 2.98051 2.31547 3.4721 2.44621 3.92967L4.16049 9.92966C4.30768 10.4448 4.77854 10.8 5.31432 10.8L10.8 10.8C11.4628 10.8 12 11.3373 12 12C12 12.6627 11.4628 13.2 10.8 13.2L5.31432 13.2C4.77854 13.2 4.30768 13.5552 4.16049 14.0703L2.4462 20.0703C2.31547 20.5279 2.46748 21.0195 2.83367 21.3234C3.19986 21.6273 3.71105 21.6861 4.13669 21.4733L20.9367 13.0733Z" fill="#E0E1E5"/>
</g>
</svg>
