<svg width="58" height="48" viewBox="0 0 58 48" fill="none" xmlns="http://www.w3.org/2000/svg">
<g id="Group">
<path id="Vector" d="M39.0005 34L29.0005 24L19.0005 34" stroke="#E0E1E5" stroke-width="1.52475" stroke-linecap="round" stroke-linejoin="round"/>
<path id="Vector_2" d="M29.0005 24V46.5" stroke="#E0E1E5" stroke-width="1.52475" stroke-linecap="round" stroke-linejoin="round"/>
<path id="Vector_3" d="M49.9751 39.975C52.4135 38.6457 54.3397 36.5422 55.4498 33.9966C56.5599 31.4509 56.7907 28.6081 56.1057 25.9167C55.4206 23.2254 53.8589 20.8388 51.6668 19.1336C49.4748 17.4285 46.7773 16.5018 44.0001 16.5H40.8501C40.0934 13.5731 38.683 10.8558 36.725 8.55248C34.767 6.24913 32.3123 4.41962 29.5454 3.20152C26.7785 1.98341 23.7715 1.4084 20.7504 1.5197C17.7294 1.63101 14.7728 2.42575 12.1031 3.84416C9.43336 5.26258 7.11992 7.26776 5.3367 9.70895C3.55348 12.1502 2.34687 14.9638 1.80759 17.9385C1.26832 20.9131 1.41041 23.9713 2.22318 26.8832C3.03595 29.795 4.49825 32.4847 6.50015 34.75" stroke="#E0E1E5" stroke-width="1.52475" stroke-linecap="round" stroke-linejoin="round"/>
<path id="Vector_4" d="M39.0005 34L29.0005 24L19.0005 34" stroke="#E0E1E5" stroke-width="1.52475" stroke-linecap="round" stroke-linejoin="round"/>
</g>
</svg>
